%TF.GenerationSoftware,KiCad,Pcbnew,7.0.8*%
%TF.CreationDate,2024-01-04T13:34:46+01:00*%
%TF.ProjectId,Inverter F446,496e7665-7274-4657-9220-463434362e6b,rev?*%
%TF.SameCoordinates,Original*%
%TF.FileFunction,Copper,L1,Top*%
%TF.FilePolarity,Positive*%
%FSLAX46Y46*%
G04 Gerber Fmt 4.6, Leading zero omitted, Abs format (unit mm)*
G04 Created by KiCad (PCBNEW 7.0.8) date 2024-01-04 13:34:46*
%MOMM*%
%LPD*%
G01*
G04 APERTURE LIST*
G04 Aperture macros list*
%AMRoundRect*
0 Rectangle with rounded corners*
0 $1 Rounding radius*
0 $2 $3 $4 $5 $6 $7 $8 $9 X,Y pos of 4 corners*
0 Add a 4 corners polygon primitive as box body*
4,1,4,$2,$3,$4,$5,$6,$7,$8,$9,$2,$3,0*
0 Add four circle primitives for the rounded corners*
1,1,$1+$1,$2,$3*
1,1,$1+$1,$4,$5*
1,1,$1+$1,$6,$7*
1,1,$1+$1,$8,$9*
0 Add four rect primitives between the rounded corners*
20,1,$1+$1,$2,$3,$4,$5,0*
20,1,$1+$1,$4,$5,$6,$7,0*
20,1,$1+$1,$6,$7,$8,$9,0*
20,1,$1+$1,$8,$9,$2,$3,0*%
G04 Aperture macros list end*
%TA.AperFunction,ComponentPad*%
%ADD10C,2.000000*%
%TD*%
%TA.AperFunction,ComponentPad*%
%ADD11C,1.600000*%
%TD*%
%TA.AperFunction,ComponentPad*%
%ADD12O,1.600000X1.600000*%
%TD*%
%TA.AperFunction,ComponentPad*%
%ADD13R,1.600000X1.600000*%
%TD*%
%TA.AperFunction,ComponentPad*%
%ADD14R,1.500000X1.050000*%
%TD*%
%TA.AperFunction,ComponentPad*%
%ADD15O,1.500000X1.050000*%
%TD*%
%TA.AperFunction,ComponentPad*%
%ADD16C,2.400000*%
%TD*%
%TA.AperFunction,ComponentPad*%
%ADD17O,2.400000X2.400000*%
%TD*%
%TA.AperFunction,ComponentPad*%
%ADD18R,3.000000X3.000000*%
%TD*%
%TA.AperFunction,ComponentPad*%
%ADD19C,3.000000*%
%TD*%
%TA.AperFunction,ComponentPad*%
%ADD20R,1.605000X1.605000*%
%TD*%
%TA.AperFunction,ComponentPad*%
%ADD21C,1.605000*%
%TD*%
%TA.AperFunction,ComponentPad*%
%ADD22R,1.530000X1.530000*%
%TD*%
%TA.AperFunction,ComponentPad*%
%ADD23C,1.530000*%
%TD*%
%TA.AperFunction,SMDPad,CuDef*%
%ADD24RoundRect,0.150000X0.512500X0.150000X-0.512500X0.150000X-0.512500X-0.150000X0.512500X-0.150000X0*%
%TD*%
%TA.AperFunction,ViaPad*%
%ADD25C,0.800000*%
%TD*%
%TA.AperFunction,Conductor*%
%ADD26C,0.500000*%
%TD*%
%TA.AperFunction,Conductor*%
%ADD27C,1.000000*%
%TD*%
%TA.AperFunction,Conductor*%
%ADD28C,0.250000*%
%TD*%
G04 APERTURE END LIST*
D10*
%TO.P,C12,1*%
%TO.N,Net-(C10-Pad1)*%
X109220000Y-55860000D03*
%TO.P,C12,2*%
%TO.N,GND1*%
X109220000Y-60860000D03*
%TD*%
D11*
%TO.P,R37,1*%
%TO.N,GND*%
X39260959Y-43050087D03*
D12*
%TO.P,R37,2*%
%TO.N,ADC2_IN6*%
X29100959Y-43050087D03*
%TD*%
D13*
%TO.P,D2,1,K*%
%TO.N,Net-(D2-K)*%
X62339688Y-19656242D03*
D12*
%TO.P,D2,2,A*%
%TO.N,GND*%
X62339688Y-27276242D03*
%TD*%
D10*
%TO.P,C24,1*%
%TO.N,ADC1_IN4*%
X130078061Y-85980594D03*
%TO.P,C24,2*%
%TO.N,GND*%
X135078061Y-85980594D03*
%TD*%
D14*
%TO.P,Q3,1,C*%
%TO.N,Net-(D2-K)*%
X57274523Y-20926242D03*
D15*
%TO.P,Q3,2,B*%
%TO.N,Net-(Q3-B)*%
X57274523Y-22196242D03*
%TO.P,Q3,3,E*%
%TO.N,GND*%
X57274523Y-23466242D03*
%TD*%
D16*
%TO.P,L6,1,1*%
%TO.N,Net-(D1-A)*%
X79586667Y-33127323D03*
D17*
%TO.P,L6,2,2*%
%TO.N,Net-(L1-Pad1)*%
X79586667Y-17887323D03*
%TD*%
D13*
%TO.P,C7,1*%
%TO.N,+5V*%
X27339244Y-22871589D03*
D11*
%TO.P,C7,2*%
%TO.N,GND*%
X27339244Y-25371589D03*
%TD*%
D16*
%TO.P,L16,1,1*%
%TO.N,Net-(L15-Pad2)*%
X124460000Y-86360000D03*
D17*
%TO.P,L16,2,2*%
%TO.N,Net-(U4--)*%
X124460000Y-71120000D03*
%TD*%
D11*
%TO.P,R5,1*%
%TO.N,TIM_CH2N*%
X45685407Y-67651038D03*
D12*
%TO.P,R5,2*%
%TO.N,Net-(Q6-B)*%
X55845407Y-67651038D03*
%TD*%
D11*
%TO.P,R14,1*%
%TO.N,GND*%
X114300000Y-92611804D03*
D12*
%TO.P,R14,2*%
%TO.N,Net-(U5A-+)*%
X114300000Y-102771804D03*
%TD*%
D18*
%TO.P,J1,1,Pin_1*%
%TO.N,GND*%
X17780000Y-22860000D03*
D19*
%TO.P,J1,2,Pin_2*%
%TO.N,+5V*%
X17780000Y-17780000D03*
%TD*%
D11*
%TO.P,R1,1*%
%TO.N,Net-(D2-K)*%
X52379688Y-16701823D03*
D12*
%TO.P,R1,2*%
%TO.N,Net-(Q2-B)*%
X62539688Y-16701823D03*
%TD*%
D14*
%TO.P,Q8,1,C*%
%TO.N,Net-(D8-A)*%
X61147815Y-78446962D03*
D15*
%TO.P,Q8,2,B*%
%TO.N,Net-(Q8-B)*%
X61147815Y-77176962D03*
%TO.P,Q8,3,E*%
%TO.N,+5V*%
X61147815Y-75906962D03*
%TD*%
D10*
%TO.P,C25,1*%
%TO.N,ADC1_IN10*%
X87187777Y-112579296D03*
%TO.P,C25,2*%
%TO.N,GND*%
X82187777Y-112579296D03*
%TD*%
D11*
%TO.P,R22,1*%
%TO.N,ADC1_IN4*%
X122815658Y-120253120D03*
D12*
%TO.P,R22,2*%
%TO.N,Net-(U5C-+)*%
X112655658Y-120253120D03*
%TD*%
D11*
%TO.P,R32,1*%
%TO.N,ADC3_IN1*%
X64049887Y-126628662D03*
D12*
%TO.P,R32,2*%
%TO.N,Net-(R32-Pad2)*%
X74209887Y-126628662D03*
%TD*%
D11*
%TO.P,R25,1*%
%TO.N,Phase2*%
X138179567Y-101648266D03*
D12*
%TO.P,R25,2*%
%TO.N,Net-(U5D-+)*%
X128019567Y-101648266D03*
%TD*%
D11*
%TO.P,R21,1*%
%TO.N,Phase3*%
X133320319Y-116710364D03*
D12*
%TO.P,R21,2*%
%TO.N,Net-(U5C--)*%
X133320319Y-126870364D03*
%TD*%
D10*
%TO.P,C34,1*%
%TO.N,ADC2_IN6*%
X32020697Y-35199069D03*
%TO.P,C34,2*%
%TO.N,GND*%
X37020697Y-35199069D03*
%TD*%
D11*
%TO.P,R28,1*%
%TO.N,Net-(U5D--)*%
X128555967Y-127055435D03*
D12*
%TO.P,R28,2*%
%TO.N,Net-(R28-Pad2)*%
X128555967Y-116895435D03*
%TD*%
D13*
%TO.P,C32,1*%
%TO.N,Net-(U1A-E5V)*%
X48260000Y-112346386D03*
D11*
%TO.P,C32,2*%
%TO.N,GND*%
X48260000Y-114846386D03*
%TD*%
%TO.P,R11,1*%
%TO.N,Phase1*%
X134620000Y-91440000D03*
D12*
%TO.P,R11,2*%
%TO.N,Net-(U5B-+)*%
X124460000Y-91440000D03*
%TD*%
D11*
%TO.P,R40,1*%
%TO.N,Net-(U4--)*%
X129287238Y-71015959D03*
D12*
%TO.P,R40,2*%
%TO.N,Phase3*%
X139447238Y-71015959D03*
%TD*%
D16*
%TO.P,L3,1,1*%
%TO.N,Net-(C1-Pad1)*%
X113453332Y-33127323D03*
D17*
%TO.P,L3,2,2*%
%TO.N,Net-(L3-Pad2)*%
X113453332Y-17887323D03*
%TD*%
D11*
%TO.P,R10,1*%
%TO.N,Net-(U2--)*%
X125402877Y-21642615D03*
D12*
%TO.P,R10,2*%
%TO.N,Phase1*%
X135562877Y-21642615D03*
%TD*%
D16*
%TO.P,L7,1,1*%
%TO.N,Net-(D5-A)*%
X71205233Y-56291482D03*
D17*
%TO.P,L7,2,2*%
%TO.N,Net-(L7-Pad2)*%
X86445233Y-56291482D03*
%TD*%
D10*
%TO.P,C21,1*%
%TO.N,ADC1_IN4*%
X129840775Y-60555652D03*
%TO.P,C21,2*%
%TO.N,GND*%
X134840775Y-60555652D03*
%TD*%
D11*
%TO.P,R39,1*%
%TO.N,Net-(U3--)*%
X128860592Y-45829420D03*
D12*
%TO.P,R39,2*%
%TO.N,Phase2*%
X139020592Y-45829420D03*
%TD*%
D20*
%TO.P,U1,CN5_1,D8*%
%TO.N,unconnected-(U1F-D8-PadCN5_1)*%
X69600000Y-49530000D03*
D21*
%TO.P,U1,CN5_2,D9*%
%TO.N,unconnected-(U1F-D9-PadCN5_2)*%
X67060000Y-49530000D03*
%TO.P,U1,CN5_3,D10*%
%TO.N,unconnected-(U1F-D10-PadCN5_3)*%
X64520000Y-49530000D03*
%TO.P,U1,CN5_4,D11*%
%TO.N,unconnected-(U1F-D11-PadCN5_4)*%
X61980000Y-49530000D03*
%TO.P,U1,CN5_5,D12*%
%TO.N,unconnected-(U1F-D12-PadCN5_5)*%
X59440000Y-49530000D03*
%TO.P,U1,CN5_6,D13*%
%TO.N,unconnected-(U1F-D13-PadCN5_6)*%
X56900000Y-49530000D03*
%TO.P,U1,CN5_7,CN5_GND*%
%TO.N,GND*%
X54360000Y-49530000D03*
%TO.P,U1,CN5_8,AREF*%
%TO.N,unconnected-(U1F-AREF-PadCN5_8)*%
X51820000Y-49530000D03*
%TO.P,U1,CN5_9,D14*%
%TO.N,unconnected-(U1F-D14-PadCN5_9)*%
X49280000Y-49530000D03*
%TO.P,U1,CN5_10,D15*%
%TO.N,unconnected-(U1F-D15-PadCN5_10)*%
X46740000Y-49530000D03*
D20*
%TO.P,U1,CN6_1*%
%TO.N,N/C*%
X55880000Y-97790000D03*
D21*
%TO.P,U1,CN6_2,CN6_IOREF*%
%TO.N,unconnected-(U1C-CN6_IOREF-PadCN6_2)*%
X58420000Y-97790000D03*
%TO.P,U1,CN6_3,CN6_RESET*%
%TO.N,unconnected-(U1C-CN6_RESET-PadCN6_3)*%
X60960000Y-97790000D03*
%TO.P,U1,CN6_4,CN6_+3V3*%
%TO.N,+3.3V*%
X63500000Y-97790000D03*
%TO.P,U1,CN6_5,CN6_+5V*%
%TO.N,unconnected-(U1C-CN6_+5V-PadCN6_5)*%
X66040000Y-97790000D03*
%TO.P,U1,CN6_6,CN6_GND*%
%TO.N,GND*%
X68580000Y-97790000D03*
%TO.P,U1,CN6_7,CN6_GND*%
X71120000Y-97790000D03*
%TO.P,U1,CN6_8,CN6_VIN*%
%TO.N,unconnected-(U1C-CN6_VIN-PadCN6_8)*%
X73660000Y-97790000D03*
D22*
%TO.P,U1,CN7_1,PC10*%
%TO.N,unconnected-(U1A-PC10-PadCN7_1)*%
X45720000Y-105410000D03*
D23*
%TO.P,U1,CN7_2,PC11*%
%TO.N,unconnected-(U1A-PC11-PadCN7_2)*%
X45720000Y-102870000D03*
%TO.P,U1,CN7_3,PC12*%
%TO.N,unconnected-(U1A-PC12-PadCN7_3)*%
X48260000Y-105410000D03*
%TO.P,U1,CN7_4,PD2*%
%TO.N,unconnected-(U1A-PD2-PadCN7_4)*%
X48260000Y-102870000D03*
%TO.P,U1,CN7_5,VDD*%
%TO.N,unconnected-(U1A-VDD-PadCN7_5)*%
X50800000Y-105410000D03*
%TO.P,U1,CN7_6,E5V*%
%TO.N,Net-(U1A-E5V)*%
X50800000Y-102870000D03*
%TO.P,U1,CN7_7,BOOT0*%
%TO.N,unconnected-(U1A-BOOT0-PadCN7_7)*%
X53340000Y-105410000D03*
%TO.P,U1,CN7_8,CN7_GND*%
%TO.N,GND*%
X53340000Y-102870000D03*
%TO.P,U1,CN7_9*%
%TO.N,N/C*%
X55880000Y-105410000D03*
%TO.P,U1,CN7_10*%
X55880000Y-102870000D03*
%TO.P,U1,CN7_11*%
X58420000Y-105410000D03*
%TO.P,U1,CN7_12,CN7_IOREF*%
%TO.N,unconnected-(U1A-CN7_IOREF-PadCN7_12)*%
X58420000Y-102870000D03*
%TO.P,U1,CN7_13,PA13*%
%TO.N,unconnected-(U1A-PA13-PadCN7_13)*%
X60960000Y-105410000D03*
%TO.P,U1,CN7_14,CN7_RESET*%
%TO.N,unconnected-(U1A-CN7_RESET-PadCN7_14)*%
X60960000Y-102870000D03*
%TO.P,U1,CN7_15,PA14*%
%TO.N,unconnected-(U1A-PA14-PadCN7_15)*%
X63500000Y-105410000D03*
%TO.P,U1,CN7_16,CN7_+3V3*%
%TO.N,+3.3V*%
X63500000Y-102870000D03*
%TO.P,U1,CN7_17,PA15*%
%TO.N,unconnected-(U1A-PA15-PadCN7_17)*%
X66040000Y-105410000D03*
%TO.P,U1,CN7_18,CN7_+5V*%
%TO.N,unconnected-(U1A-CN7_+5V-PadCN7_18)*%
X66040000Y-102870000D03*
%TO.P,U1,CN7_19,CN7_GND*%
%TO.N,GND*%
X68580000Y-105410000D03*
%TO.P,U1,CN7_20,CN7_GND*%
X68580000Y-102870000D03*
%TO.P,U1,CN7_21,PB7*%
%TO.N,unconnected-(U1A-PB7-PadCN7_21)*%
X71120000Y-105410000D03*
%TO.P,U1,CN7_22,CN7_GND*%
%TO.N,GND*%
X71120000Y-102870000D03*
%TO.P,U1,CN7_23,PC13*%
%TO.N,unconnected-(U1A-PC13-PadCN7_23)*%
X73660000Y-105410000D03*
%TO.P,U1,CN7_24,CN7_VIN*%
%TO.N,unconnected-(U1A-CN7_VIN-PadCN7_24)*%
X73660000Y-102870000D03*
%TO.P,U1,CN7_25,PC14*%
%TO.N,unconnected-(U1A-PC14-PadCN7_25)*%
X76200000Y-105410000D03*
%TO.P,U1,CN7_26*%
%TO.N,N/C*%
X76200000Y-102870000D03*
%TO.P,U1,CN7_27,PC15*%
%TO.N,unconnected-(U1A-PC15-PadCN7_27)*%
X78740000Y-105410000D03*
%TO.P,U1,CN7_28,PA0*%
%TO.N,ADC3_IN0*%
X78740000Y-102870000D03*
%TO.P,U1,CN7_29,PH0*%
%TO.N,unconnected-(U1A-PH0-PadCN7_29)*%
X81280000Y-105410000D03*
%TO.P,U1,CN7_30,PA1*%
%TO.N,ADC3_IN1*%
X81280000Y-102870000D03*
%TO.P,U1,CN7_31,PH1*%
%TO.N,unconnected-(U1A-PH1-PadCN7_31)*%
X83820000Y-105410000D03*
%TO.P,U1,CN7_32,PA4*%
%TO.N,ADC1_IN4*%
X83820000Y-102870000D03*
%TO.P,U1,CN7_33,VBAT*%
%TO.N,unconnected-(U1A-VBAT-PadCN7_33)*%
X86360000Y-105410000D03*
%TO.P,U1,CN7_34,PB0*%
%TO.N,unconnected-(U1A-PB0-PadCN7_34)*%
X86360000Y-102870000D03*
%TO.P,U1,CN7_35,PC2*%
%TO.N,ADC2_IN12*%
X88900000Y-105410000D03*
%TO.P,U1,CN7_36,PC1/PB9*%
%TO.N,ADC1_IN11*%
X88900000Y-102870000D03*
%TO.P,U1,CN7_37,PC3*%
%TO.N,ADC2_IN13*%
X91440000Y-105410000D03*
%TO.P,U1,CN7_38,PC0/PB8*%
%TO.N,ADC1_IN10*%
X91440000Y-102870000D03*
D20*
%TO.P,U1,CN8_1,A0*%
%TO.N,unconnected-(U1E-A0-PadCN8_1)*%
X78740000Y-97790000D03*
D21*
%TO.P,U1,CN8_2,A1*%
%TO.N,unconnected-(U1E-A1-PadCN8_2)*%
X81280000Y-97790000D03*
%TO.P,U1,CN8_3,A2*%
%TO.N,unconnected-(U1E-A2-PadCN8_3)*%
X83820000Y-97790000D03*
%TO.P,U1,CN8_4,A3*%
%TO.N,unconnected-(U1E-A3-PadCN8_4)*%
X86360000Y-97790000D03*
%TO.P,U1,CN8_5,A4*%
%TO.N,unconnected-(U1E-A4-PadCN8_5)*%
X88900000Y-97790000D03*
%TO.P,U1,CN8_6,A5*%
%TO.N,unconnected-(U1E-A5-PadCN8_6)*%
X91440000Y-97790000D03*
D20*
%TO.P,U1,CN9_1,D0*%
%TO.N,unconnected-(U1D-D0-PadCN9_1)*%
X91440000Y-49530000D03*
D21*
%TO.P,U1,CN9_2,D1*%
%TO.N,unconnected-(U1D-D1-PadCN9_2)*%
X88900000Y-49530000D03*
%TO.P,U1,CN9_3,D2*%
%TO.N,unconnected-(U1D-D2-PadCN9_3)*%
X86360000Y-49530000D03*
%TO.P,U1,CN9_4,D3*%
%TO.N,unconnected-(U1D-D3-PadCN9_4)*%
X83820000Y-49530000D03*
%TO.P,U1,CN9_5,D4*%
%TO.N,unconnected-(U1D-D4-PadCN9_5)*%
X81280000Y-49530000D03*
%TO.P,U1,CN9_6,D5*%
%TO.N,unconnected-(U1D-D5-PadCN9_6)*%
X78740000Y-49530000D03*
%TO.P,U1,CN9_7,D6*%
%TO.N,unconnected-(U1D-D6-PadCN9_7)*%
X76200000Y-49530000D03*
%TO.P,U1,CN9_8,D7*%
%TO.N,unconnected-(U1D-D7-PadCN9_8)*%
X73660000Y-49530000D03*
D22*
%TO.P,U1,CN10_1,PC9*%
%TO.N,unconnected-(U1B-PC9-PadCN10_1)*%
X45720000Y-44450000D03*
D23*
%TO.P,U1,CN10_2,PC8*%
%TO.N,unconnected-(U1B-PC8-PadCN10_2)*%
X45720000Y-41910000D03*
%TO.P,U1,CN10_3,PB8*%
%TO.N,unconnected-(U1B-PB8-PadCN10_3)*%
X48260000Y-44450000D03*
%TO.P,U1,CN10_4,PC6*%
%TO.N,unconnected-(U1B-PC6-PadCN10_4)*%
X48260000Y-41910000D03*
%TO.P,U1,CN10_5,PB9*%
%TO.N,unconnected-(U1B-PB9-PadCN10_5)*%
X50800000Y-44450000D03*
%TO.P,U1,CN10_6,PC5*%
%TO.N,unconnected-(U1B-PC5-PadCN10_6)*%
X50800000Y-41910000D03*
%TO.P,U1,CN10_7,AVDD*%
%TO.N,unconnected-(U1B-AVDD-PadCN10_7)*%
X53340000Y-44450000D03*
%TO.P,U1,CN10_8,U5V*%
%TO.N,unconnected-(U1B-U5V-PadCN10_8)*%
X53340000Y-41910000D03*
%TO.P,U1,CN10_9,CN10_GND*%
%TO.N,GND*%
X55880000Y-44450000D03*
%TO.P,U1,CN10_10*%
%TO.N,N/C*%
X55880000Y-41910000D03*
%TO.P,U1,CN10_11,PA5*%
%TO.N,unconnected-(U1B-PA5-PadCN10_11)*%
X58420000Y-44450000D03*
%TO.P,U1,CN10_12,PA12*%
%TO.N,unconnected-(U1B-PA12-PadCN10_12)*%
X58420000Y-41910000D03*
%TO.P,U1,CN10_13,PA6*%
%TO.N,ADC2_IN6*%
X60960000Y-44450000D03*
%TO.P,U1,CN10_14,PA11*%
%TO.N,unconnected-(U1B-PA11-PadCN10_14)*%
X60960000Y-41910000D03*
%TO.P,U1,CN10_15,PA7*%
%TO.N,unconnected-(U1B-PA7-PadCN10_15)*%
X63500000Y-44450000D03*
%TO.P,U1,CN10_16,PB12*%
%TO.N,unconnected-(U1B-PB12-PadCN10_16)*%
X63500000Y-41910000D03*
%TO.P,U1,CN10_17,PB6*%
%TO.N,unconnected-(U1B-PB6-PadCN10_17)*%
X66040000Y-44450000D03*
%TO.P,U1,CN10_18*%
%TO.N,N/C*%
X66040000Y-41910000D03*
%TO.P,U1,CN10_19,PC7*%
%TO.N,unconnected-(U1B-PC7-PadCN10_19)*%
X68580000Y-44450000D03*
%TO.P,U1,CN10_20,CN10_GND*%
%TO.N,GND*%
X68580000Y-41910000D03*
%TO.P,U1,CN10_21,PA9*%
%TO.N,TIM_CH2*%
X71120000Y-44450000D03*
%TO.P,U1,CN10_22,PB2*%
%TO.N,unconnected-(U1B-PB2-PadCN10_22)*%
X71120000Y-41910000D03*
%TO.P,U1,CN10_23,PA8*%
%TO.N,TIM_CH1*%
X73660000Y-44450000D03*
%TO.P,U1,CN10_24,PB1*%
%TO.N,unconnected-(U1B-PB1-PadCN10_24)*%
X73660000Y-41910000D03*
%TO.P,U1,CN10_25,PB10*%
%TO.N,unconnected-(U1B-PB10-PadCN10_25)*%
X76200000Y-44450000D03*
%TO.P,U1,CN10_26,PB15*%
%TO.N,TIM_CH3N*%
X76200000Y-41910000D03*
%TO.P,U1,CN10_27,PB4*%
%TO.N,unconnected-(U1B-PB4-PadCN10_27)*%
X78740000Y-44450000D03*
%TO.P,U1,CN10_28,PB14*%
%TO.N,TIM_CH2N*%
X78740000Y-41910000D03*
%TO.P,U1,CN10_29,PB5*%
%TO.N,unconnected-(U1B-PB5-PadCN10_29)*%
X81280000Y-44450000D03*
%TO.P,U1,CN10_30,PB13*%
%TO.N,TIM_CH1N*%
X81280000Y-41910000D03*
%TO.P,U1,CN10_31,PB3*%
%TO.N,unconnected-(U1B-PB3-PadCN10_31)*%
X83820000Y-44450000D03*
%TO.P,U1,CN10_32,AGND*%
%TO.N,unconnected-(U1B-AGND-PadCN10_32)*%
X83820000Y-41910000D03*
%TO.P,U1,CN10_33,PA10*%
%TO.N,TIM_CH3*%
X86360000Y-44450000D03*
%TO.P,U1,CN10_34,PC4*%
%TO.N,unconnected-(U1B-PC4-PadCN10_34)*%
X86360000Y-41910000D03*
%TO.P,U1,CN10_35,PA2*%
%TO.N,unconnected-(U1B-PA2-PadCN10_35)*%
X88900000Y-44450000D03*
%TO.P,U1,CN10_36*%
%TO.N,N/C*%
X88900000Y-41910000D03*
%TO.P,U1,CN10_37,PA3*%
%TO.N,unconnected-(U1B-PA3-PadCN10_37)*%
X91440000Y-44450000D03*
%TO.P,U1,CN10_38*%
%TO.N,N/C*%
X91440000Y-41910000D03*
%TD*%
D10*
%TO.P,C30,1*%
%TO.N,ADC3_IN1*%
X69530528Y-121966945D03*
%TO.P,C30,2*%
%TO.N,GND*%
X64530528Y-121966945D03*
%TD*%
D16*
%TO.P,L15,1,1*%
%TO.N,Net-(C13-Pad1)*%
X117686665Y-86360000D03*
D17*
%TO.P,L15,2,2*%
%TO.N,Net-(L15-Pad2)*%
X117686665Y-71120000D03*
%TD*%
D11*
%TO.P,R6,1*%
%TO.N,Net-(D4-K)*%
X45643489Y-53947960D03*
D12*
%TO.P,R6,2*%
%TO.N,Net-(Q5-B)*%
X55803489Y-53947960D03*
%TD*%
D11*
%TO.P,R31,1*%
%TO.N,ADC2_IN13*%
X32730388Y-116927792D03*
D12*
%TO.P,R31,2*%
%TO.N,Net-(R31-Pad2)*%
X42890388Y-116927792D03*
%TD*%
D11*
%TO.P,R24,1*%
%TO.N,Net-(R23-Pad2)*%
X91932762Y-126311292D03*
D12*
%TO.P,R24,2*%
%TO.N,ADC2_IN12*%
X81772762Y-126311292D03*
%TD*%
D11*
%TO.P,R18,1*%
%TO.N,Net-(U4--)*%
X129287238Y-74405629D03*
D12*
%TO.P,R18,2*%
%TO.N,Phase3*%
X139447238Y-74405629D03*
%TD*%
D11*
%TO.P,R26,1*%
%TO.N,Phase3*%
X136681888Y-116739651D03*
D12*
%TO.P,R26,2*%
%TO.N,Net-(U5D--)*%
X136681888Y-126899651D03*
%TD*%
D10*
%TO.P,C13,1*%
%TO.N,Net-(C13-Pad1)*%
X102446667Y-71040000D03*
%TO.P,C13,2*%
%TO.N,GND1*%
X102446667Y-76040000D03*
%TD*%
D13*
%TO.P,D3,1,K*%
%TO.N,Net-(D1-A)*%
X71966667Y-26777323D03*
D12*
%TO.P,D3,2,A*%
%TO.N,GND*%
X71966667Y-34397323D03*
%TD*%
D16*
%TO.P,L11,1,1*%
%TO.N,Net-(L10-Pad2)*%
X124460000Y-60960000D03*
D17*
%TO.P,L11,2,2*%
%TO.N,Net-(U3--)*%
X124460000Y-45720000D03*
%TD*%
D11*
%TO.P,R36,1*%
%TO.N,ADC2_IN6*%
X39263895Y-46456938D03*
D12*
%TO.P,R36,2*%
%TO.N,+5V*%
X29103895Y-46456938D03*
%TD*%
D10*
%TO.P,C19,1*%
%TO.N,ADC1_IN4*%
X126223022Y-32251284D03*
%TO.P,C19,2*%
%TO.N,GND*%
X131223022Y-32251284D03*
%TD*%
D16*
%TO.P,L9,1,1*%
%TO.N,Net-(L8-Pad2)*%
X71120000Y-68580000D03*
D17*
%TO.P,L9,2,2*%
%TO.N,Net-(C10-Pad1)*%
X86360000Y-68580000D03*
%TD*%
D11*
%TO.P,R7,1*%
%TO.N,TIM_CH3*%
X36350390Y-80986962D03*
D12*
%TO.P,R7,2*%
%TO.N,Net-(Q7-B)*%
X46510390Y-80986962D03*
%TD*%
D10*
%TO.P,C23,1*%
%TO.N,+5V*%
X102884990Y-110277675D03*
%TO.P,C23,2*%
%TO.N,GND*%
X102884990Y-115277675D03*
%TD*%
D14*
%TO.P,Q2,1,C*%
%TO.N,Net-(D1-A)*%
X67894116Y-21328393D03*
D15*
%TO.P,Q2,2,B*%
%TO.N,Net-(Q2-B)*%
X67894116Y-20058393D03*
%TO.P,Q2,3,E*%
%TO.N,+5V*%
X67894116Y-18788393D03*
%TD*%
D24*
%TO.P,U4,1*%
%TO.N,Net-(R32-Pad2)*%
X135643856Y-79160826D03*
%TO.P,U4,2,GND*%
%TO.N,GND*%
X135643856Y-78210826D03*
%TO.P,U4,3,+*%
%TO.N,Phase3*%
X135643856Y-77260826D03*
%TO.P,U4,4,-*%
%TO.N,Net-(U4--)*%
X133368856Y-77260826D03*
%TO.P,U4,5,REF*%
%TO.N,ADC1_IN4*%
X133368856Y-78210826D03*
%TO.P,U4,6,V+*%
%TO.N,+5V*%
X133368856Y-79160826D03*
%TD*%
D10*
%TO.P,C3,1*%
%TO.N,Net-(C1-Pad1)*%
X99906666Y-27914127D03*
%TO.P,C3,2*%
%TO.N,GND1*%
X99906666Y-32914127D03*
%TD*%
%TO.P,C28,1*%
%TO.N,ADC1_IN11*%
X22780000Y-112103866D03*
%TO.P,C28,2*%
%TO.N,GND*%
X17780000Y-112103866D03*
%TD*%
D11*
%TO.P,R29,1*%
%TO.N,Net-(R28-Pad2)*%
X74228929Y-117082212D03*
D12*
%TO.P,R29,2*%
%TO.N,ADC3_IN0*%
X64068929Y-117082212D03*
%TD*%
D16*
%TO.P,L12,1,1*%
%TO.N,Net-(D8-A)*%
X71120000Y-78740000D03*
D17*
%TO.P,L12,2,2*%
%TO.N,Net-(L12-Pad2)*%
X86360000Y-78740000D03*
%TD*%
D16*
%TO.P,L14,1,1*%
%TO.N,Net-(L13-Pad2)*%
X71053576Y-90563547D03*
D17*
%TO.P,L14,2,2*%
%TO.N,Net-(C13-Pad1)*%
X86293576Y-90563547D03*
%TD*%
D10*
%TO.P,C22,1*%
%TO.N,+5V*%
X130078061Y-81930594D03*
%TO.P,C22,2*%
%TO.N,GND*%
X135078061Y-81930594D03*
%TD*%
%TO.P,C20,1*%
%TO.N,+5V*%
X129840775Y-57266421D03*
%TO.P,C20,2*%
%TO.N,GND*%
X134840775Y-57266421D03*
%TD*%
D14*
%TO.P,Q9,1,C*%
%TO.N,Net-(D8-A)*%
X60427815Y-88606962D03*
D15*
%TO.P,Q9,2,B*%
%TO.N,Net-(Q9-B)*%
X60427815Y-89876962D03*
%TO.P,Q9,3,E*%
%TO.N,GND*%
X60427815Y-91146962D03*
%TD*%
D13*
%TO.P,D4,1,K*%
%TO.N,Net-(D4-K)*%
X55566016Y-56982470D03*
D12*
%TO.P,D4,2,A*%
%TO.N,GND*%
X55566016Y-64602470D03*
%TD*%
D10*
%TO.P,C6,1*%
%TO.N,+5V*%
X35939341Y-14742570D03*
%TO.P,C6,2*%
%TO.N,GND*%
X35939341Y-19742570D03*
%TD*%
D11*
%TO.P,R17,1*%
%TO.N,Net-(U5B--)*%
X107286967Y-96031382D03*
D12*
%TO.P,R17,2*%
%TO.N,Net-(R17-Pad2)*%
X107286967Y-106191382D03*
%TD*%
D10*
%TO.P,C4,1*%
%TO.N,Net-(C1-Pad1)*%
X106679999Y-27914127D03*
%TO.P,C4,2*%
%TO.N,GND1*%
X106679999Y-32914127D03*
%TD*%
D13*
%TO.P,C8,1*%
%TO.N,+5V*%
X27339244Y-15210639D03*
D11*
%TO.P,C8,2*%
%TO.N,GND*%
X27339244Y-17710639D03*
%TD*%
%TO.P,R27,1*%
%TO.N,ADC1_IN4*%
X122956641Y-123783096D03*
D12*
%TO.P,R27,2*%
%TO.N,Net-(U5D-+)*%
X112796641Y-123783096D03*
%TD*%
D10*
%TO.P,C5,1*%
%TO.N,+5V*%
X35829030Y-23685503D03*
%TO.P,C5,2*%
%TO.N,GND*%
X35829030Y-28685503D03*
%TD*%
D16*
%TO.P,L8,1,1*%
%TO.N,Net-(L7-Pad2)*%
X71120000Y-62535377D03*
D17*
%TO.P,L8,2,2*%
%TO.N,Net-(L8-Pad2)*%
X86360000Y-62535377D03*
%TD*%
D10*
%TO.P,C16,1*%
%TO.N,Net-(C13-Pad1)*%
X109220000Y-81180000D03*
%TO.P,C16,2*%
%TO.N,GND1*%
X109220000Y-86180000D03*
%TD*%
%TO.P,C14,1*%
%TO.N,Net-(C13-Pad1)*%
X109220000Y-71040000D03*
%TO.P,C14,2*%
%TO.N,GND1*%
X109220000Y-76040000D03*
%TD*%
%TO.P,C27,1*%
%TO.N,ADC3_IN0*%
X69503792Y-112555624D03*
%TO.P,C27,2*%
%TO.N,GND*%
X64503792Y-112555624D03*
%TD*%
%TO.P,C9,1*%
%TO.N,Net-(C10-Pad1)*%
X102446667Y-45720000D03*
%TO.P,C9,2*%
%TO.N,GND1*%
X102446667Y-50720000D03*
%TD*%
D16*
%TO.P,L1,1,1*%
%TO.N,Net-(L1-Pad1)*%
X86360000Y-33020000D03*
D17*
%TO.P,L1,2,2*%
%TO.N,Net-(L1-Pad2)*%
X86360000Y-17780000D03*
%TD*%
D13*
%TO.P,D8,1,K*%
%TO.N,+5V*%
X65240351Y-74929895D03*
D12*
%TO.P,D8,2,A*%
%TO.N,Net-(D8-A)*%
X65240351Y-82549895D03*
%TD*%
D10*
%TO.P,C10,1*%
%TO.N,Net-(C10-Pad1)*%
X109220000Y-45720000D03*
%TO.P,C10,2*%
%TO.N,GND1*%
X109220000Y-50720000D03*
%TD*%
D13*
%TO.P,D5,1,K*%
%TO.N,+5V*%
X65272386Y-53194390D03*
D12*
%TO.P,D5,2,A*%
%TO.N,Net-(D5-A)*%
X65272386Y-60814390D03*
%TD*%
D10*
%TO.P,C26,1*%
%TO.N,ADC2_IN12*%
X87225483Y-121815448D03*
%TO.P,C26,2*%
%TO.N,GND*%
X82225483Y-121815448D03*
%TD*%
D11*
%TO.P,R38,1*%
%TO.N,Net-(U2--)*%
X125402877Y-17977129D03*
D12*
%TO.P,R38,2*%
%TO.N,Phase1*%
X135562877Y-17977129D03*
%TD*%
D11*
%TO.P,R4,1*%
%TO.N,TIM_CH2*%
X36402410Y-58252470D03*
D12*
%TO.P,R4,2*%
%TO.N,Net-(Q1-B)*%
X46562410Y-58252470D03*
%TD*%
D11*
%TO.P,R3,1*%
%TO.N,TIM_CH1N*%
X52379688Y-30289442D03*
D12*
%TO.P,R3,2*%
%TO.N,Net-(Q4-B)*%
X62539688Y-30289442D03*
%TD*%
D14*
%TO.P,Q5,1,C*%
%TO.N,Net-(D5-A)*%
X61199835Y-58514732D03*
D15*
%TO.P,Q5,2,B*%
%TO.N,Net-(Q5-B)*%
X61199835Y-57244732D03*
%TO.P,Q5,3,E*%
%TO.N,+5V*%
X61199835Y-55974732D03*
%TD*%
D11*
%TO.P,R8,1*%
%TO.N,TIM_CH3N*%
X45633387Y-88606962D03*
D12*
%TO.P,R8,2*%
%TO.N,Net-(Q9-B)*%
X55793387Y-88606962D03*
%TD*%
D11*
%TO.P,R15,1*%
%TO.N,Net-(U3--)*%
X128834806Y-49767842D03*
D12*
%TO.P,R15,2*%
%TO.N,Phase2*%
X138994806Y-49767842D03*
%TD*%
D10*
%TO.P,C29,1*%
%TO.N,ADC2_IN13*%
X38157677Y-112201796D03*
%TO.P,C29,2*%
%TO.N,GND*%
X33157677Y-112201796D03*
%TD*%
D13*
%TO.P,D1,1,K*%
%TO.N,+5V*%
X71966667Y-15830566D03*
D12*
%TO.P,D1,2,A*%
%TO.N,Net-(D1-A)*%
X71966667Y-23450566D03*
%TD*%
D11*
%TO.P,R16,1*%
%TO.N,ADC1_IN4*%
X120278364Y-105719119D03*
D12*
%TO.P,R16,2*%
%TO.N,Net-(U5B-+)*%
X110118364Y-105719119D03*
%TD*%
D11*
%TO.P,R9,1*%
%TO.N,Net-(D7-K)*%
X45591469Y-74825039D03*
D12*
%TO.P,R9,2*%
%TO.N,Net-(Q8-B)*%
X55751469Y-74825039D03*
%TD*%
D13*
%TO.P,D7,1,K*%
%TO.N,Net-(D7-K)*%
X55375315Y-78048918D03*
D12*
%TO.P,D7,2,A*%
%TO.N,GND*%
X55375315Y-85668918D03*
%TD*%
D16*
%TO.P,L13,1,1*%
%TO.N,Net-(L12-Pad2)*%
X71120000Y-84718198D03*
D17*
%TO.P,L13,2,2*%
%TO.N,Net-(L13-Pad2)*%
X86360000Y-84718198D03*
%TD*%
D13*
%TO.P,C33,1*%
%TO.N,+5V*%
X20563953Y-31261220D03*
D11*
%TO.P,C33,2*%
%TO.N,GND*%
X15563953Y-31261220D03*
%TD*%
D10*
%TO.P,C1,1*%
%TO.N,Net-(C1-Pad1)*%
X99906666Y-17774127D03*
%TO.P,C1,2*%
%TO.N,GND1*%
X99906666Y-22774127D03*
%TD*%
D14*
%TO.P,Q1,1,C*%
%TO.N,Net-(D4-K)*%
X50500851Y-58252470D03*
D15*
%TO.P,Q1,2,B*%
%TO.N,Net-(Q1-B)*%
X50500851Y-59522470D03*
%TO.P,Q1,3,E*%
%TO.N,GND*%
X50500851Y-60792470D03*
%TD*%
D13*
%TO.P,D9,1,K*%
%TO.N,Net-(D8-A)*%
X65243743Y-85450239D03*
D12*
%TO.P,D9,2,A*%
%TO.N,GND*%
X65243743Y-93070239D03*
%TD*%
D10*
%TO.P,C17,1*%
%TO.N,+5V*%
X126199089Y-28871610D03*
%TO.P,C17,2*%
%TO.N,GND*%
X131199089Y-28871610D03*
%TD*%
D11*
%TO.P,R30,1*%
%TO.N,ADC1_IN11*%
X17294668Y-116715617D03*
D12*
%TO.P,R30,2*%
%TO.N,Net-(R30-Pad2)*%
X27454668Y-116715617D03*
%TD*%
D14*
%TO.P,Q6,1,C*%
%TO.N,Net-(D5-A)*%
X60479835Y-66439277D03*
D15*
%TO.P,Q6,2,B*%
%TO.N,Net-(Q6-B)*%
X60479835Y-67709277D03*
%TO.P,Q6,3,E*%
%TO.N,GND*%
X60479835Y-68979277D03*
%TD*%
D16*
%TO.P,L2,1,1*%
%TO.N,Net-(L1-Pad2)*%
X93133333Y-32964127D03*
D17*
%TO.P,L2,2,2*%
%TO.N,Net-(C1-Pad1)*%
X93133333Y-17724127D03*
%TD*%
D11*
%TO.P,R2,1*%
%TO.N,TIM_CH1*%
X43176082Y-22177431D03*
D12*
%TO.P,R2,2*%
%TO.N,Net-(Q3-B)*%
X53336082Y-22177431D03*
%TD*%
D10*
%TO.P,C11,1*%
%TO.N,Net-(C10-Pad1)*%
X102446667Y-55860000D03*
%TO.P,C11,2*%
%TO.N,GND1*%
X102446667Y-60860000D03*
%TD*%
%TO.P,C15,1*%
%TO.N,Net-(C13-Pad1)*%
X102446667Y-81180000D03*
%TO.P,C15,2*%
%TO.N,GND1*%
X102446667Y-86180000D03*
%TD*%
%TO.P,C31,1*%
%TO.N,Net-(U1A-E5V)*%
X55999631Y-111028765D03*
%TO.P,C31,2*%
%TO.N,GND*%
X55999631Y-116028765D03*
%TD*%
D11*
%TO.P,R20,1*%
%TO.N,Phase1*%
X134652999Y-94895396D03*
D12*
%TO.P,R20,2*%
%TO.N,Net-(U5C-+)*%
X124492999Y-94895396D03*
%TD*%
D10*
%TO.P,C18,1*%
%TO.N,Net-(U5A-+)*%
X117629435Y-102268518D03*
%TO.P,C18,2*%
%TO.N,GND*%
X117629435Y-97268518D03*
%TD*%
D13*
%TO.P,U5,1*%
%TO.N,ADC1_IN4*%
X122796621Y-109220000D03*
D12*
%TO.P,U5,2,-*%
X120256621Y-109220000D03*
%TO.P,U5,3,+*%
%TO.N,Net-(U5A-+)*%
X117716621Y-109220000D03*
%TO.P,U5,4,V+*%
%TO.N,+5V*%
X115176621Y-109220000D03*
%TO.P,U5,5,+*%
%TO.N,Net-(U5B-+)*%
X112636621Y-109220000D03*
%TO.P,U5,6,-*%
%TO.N,Net-(U5B--)*%
X110096621Y-109220000D03*
%TO.P,U5,7*%
%TO.N,Net-(R17-Pad2)*%
X107556621Y-109220000D03*
%TO.P,U5,8*%
%TO.N,Net-(R23-Pad2)*%
X107556621Y-116840000D03*
%TO.P,U5,9,-*%
%TO.N,Net-(U5C--)*%
X110096621Y-116840000D03*
%TO.P,U5,10,+*%
%TO.N,Net-(U5C-+)*%
X112636621Y-116840000D03*
%TO.P,U5,11,V-*%
%TO.N,GND*%
X115176621Y-116840000D03*
%TO.P,U5,12,+*%
%TO.N,Net-(U5D-+)*%
X117716621Y-116840000D03*
%TO.P,U5,13,-*%
%TO.N,Net-(U5D--)*%
X120256621Y-116840000D03*
%TO.P,U5,14*%
%TO.N,Net-(R28-Pad2)*%
X122796621Y-116840000D03*
%TD*%
D18*
%TO.P,J2,1,Pin_1*%
%TO.N,Phase3*%
X147320000Y-30480000D03*
D19*
%TO.P,J2,2,Pin_2*%
%TO.N,Phase2*%
X147320000Y-25400000D03*
%TO.P,J2,3,Pin_3*%
%TO.N,Phase1*%
X147320000Y-20320000D03*
%TD*%
D11*
%TO.P,R23,1*%
%TO.N,Net-(U5C--)*%
X110017191Y-120101531D03*
D12*
%TO.P,R23,2*%
%TO.N,Net-(R23-Pad2)*%
X99857191Y-120101531D03*
%TD*%
D24*
%TO.P,U2,1*%
%TO.N,Net-(R30-Pad2)*%
X131786589Y-26149754D03*
%TO.P,U2,2,GND*%
%TO.N,GND*%
X131786589Y-25199754D03*
%TO.P,U2,3,+*%
%TO.N,Phase1*%
X131786589Y-24249754D03*
%TO.P,U2,4,-*%
%TO.N,Net-(U2--)*%
X129511589Y-24249754D03*
%TO.P,U2,5,REF*%
%TO.N,ADC1_IN4*%
X129511589Y-25199754D03*
%TO.P,U2,6,V+*%
%TO.N,+5V*%
X129511589Y-26149754D03*
%TD*%
D16*
%TO.P,L4,1,1*%
%TO.N,Net-(L3-Pad2)*%
X120226667Y-33127323D03*
D17*
%TO.P,L4,2,2*%
%TO.N,Net-(U2--)*%
X120226667Y-17887323D03*
%TD*%
D24*
%TO.P,U3,1*%
%TO.N,Net-(R31-Pad2)*%
X135302338Y-54442906D03*
%TO.P,U3,2,GND*%
%TO.N,GND*%
X135302338Y-53492906D03*
%TO.P,U3,3,+*%
%TO.N,Phase2*%
X135302338Y-52542906D03*
%TO.P,U3,4,-*%
%TO.N,Net-(U3--)*%
X133027338Y-52542906D03*
%TO.P,U3,5,REF*%
%TO.N,ADC1_IN4*%
X133027338Y-53492906D03*
%TO.P,U3,6,V+*%
%TO.N,+5V*%
X133027338Y-54442906D03*
%TD*%
D10*
%TO.P,C2,1*%
%TO.N,Net-(C1-Pad1)*%
X106679999Y-17774127D03*
%TO.P,C2,2*%
%TO.N,GND1*%
X106679999Y-22774127D03*
%TD*%
D11*
%TO.P,R12,1*%
%TO.N,Phase2*%
X138203982Y-98332267D03*
D12*
%TO.P,R12,2*%
%TO.N,Net-(U5B--)*%
X128043982Y-98332267D03*
%TD*%
D13*
%TO.P,D6,1,K*%
%TO.N,Net-(D5-A)*%
X65272386Y-63899492D03*
D12*
%TO.P,D6,2,A*%
%TO.N,GND*%
X65272386Y-71519492D03*
%TD*%
D16*
%TO.P,L10,1,1*%
%TO.N,Net-(C10-Pad1)*%
X117686665Y-60960000D03*
D17*
%TO.P,L10,2,2*%
%TO.N,Net-(L10-Pad2)*%
X117686665Y-45720000D03*
%TD*%
D11*
%TO.P,R19,1*%
%TO.N,Net-(R17-Pad2)*%
X91906915Y-117204549D03*
D12*
%TO.P,R19,2*%
%TO.N,ADC1_IN10*%
X81746915Y-117204549D03*
%TD*%
D14*
%TO.P,Q4,1,C*%
%TO.N,Net-(D1-A)*%
X67174116Y-29015621D03*
D15*
%TO.P,Q4,2,B*%
%TO.N,Net-(Q4-B)*%
X67174116Y-30285621D03*
%TO.P,Q4,3,E*%
%TO.N,GND*%
X67174116Y-31555621D03*
%TD*%
D11*
%TO.P,R13,1*%
%TO.N,Net-(U5A-+)*%
X110880422Y-102655886D03*
D12*
%TO.P,R13,2*%
%TO.N,+3.3V*%
X110880422Y-92495886D03*
%TD*%
D14*
%TO.P,Q7,1,C*%
%TO.N,Net-(D7-K)*%
X50560678Y-79703833D03*
D15*
%TO.P,Q7,2,B*%
%TO.N,Net-(Q7-B)*%
X50560678Y-80973833D03*
%TO.P,Q7,3,E*%
%TO.N,GND*%
X50560678Y-82243833D03*
%TD*%
D25*
%TO.N,+5V*%
X99060000Y-99060000D03*
%TO.N,Phase3*%
X147320000Y-71120000D03*
%TO.N,Net-(R30-Pad2)*%
X134597508Y-29782754D03*
%TO.N,Net-(R31-Pad2)*%
X132080000Y-66040000D03*
%TO.N,Net-(R32-Pad2)*%
X133003065Y-81516163D03*
%TO.N,TIM_CH3N*%
X68602470Y-66040000D03*
%TO.N,ADC1_IN4*%
X121920000Y-38100000D03*
%TO.N,ADC2_IN12*%
X87293308Y-117224622D03*
%TD*%
D26*
%TO.N,GND1*%
X102446667Y-86180000D02*
X109220000Y-86180000D01*
X103896667Y-78638720D02*
X105820313Y-80562366D01*
X99906666Y-30547460D02*
X99906666Y-32914127D01*
X102446667Y-60860000D02*
X109220000Y-60860000D01*
X103896667Y-77490000D02*
X103896667Y-78638720D01*
X105820313Y-82780313D02*
X109220000Y-86180000D01*
X106679999Y-22774127D02*
X106679999Y-23774127D01*
X105820313Y-80562366D02*
X105820313Y-82780313D01*
X109220000Y-76040000D02*
X102446667Y-76040000D01*
X102446667Y-60860000D02*
X105832141Y-64245474D01*
X105832141Y-72652141D02*
X109220000Y-76040000D01*
X105832141Y-64245474D02*
X105832141Y-72652141D01*
X102446667Y-50720000D02*
X109220000Y-50720000D01*
X106679999Y-22774127D02*
X99906666Y-22774127D01*
X109220000Y-60860000D02*
X107770000Y-59410000D01*
X102446667Y-76040000D02*
X103896667Y-77490000D01*
X107770000Y-56043333D02*
X102446667Y-50720000D01*
X107770000Y-59410000D02*
X107770000Y-56043333D01*
X106679999Y-23774127D02*
X99906666Y-30547460D01*
X99906666Y-32914127D02*
X106679999Y-32914127D01*
%TO.N,+5V*%
X129511589Y-26149754D02*
X128920945Y-26149754D01*
X130599088Y-81930594D02*
X133368856Y-79160826D01*
X130078061Y-81930594D02*
X130599088Y-81930594D01*
X129840775Y-57266421D02*
X130203823Y-57266421D01*
X99060000Y-99060000D02*
X99060000Y-81987575D01*
X92002320Y-74929895D02*
X65240351Y-74929895D01*
X128920945Y-26149754D02*
X126199089Y-28871610D01*
X130203823Y-57266421D02*
X133027338Y-54442906D01*
X99060000Y-81987575D02*
X92002320Y-74929895D01*
%TO.N,GND*%
X138813736Y-81280000D02*
X138813736Y-85061349D01*
D27*
X29371175Y-19742570D02*
X27339244Y-17710639D01*
X71966667Y-34397323D02*
X73764223Y-36194879D01*
X43131872Y-46921000D02*
X51751000Y-46921000D01*
D26*
X136249081Y-30429394D02*
X134427191Y-32251284D01*
X66400239Y-93070239D02*
X71120000Y-97790000D01*
D27*
X37020697Y-40809825D02*
X38745436Y-42534564D01*
D26*
X138163142Y-81930594D02*
X138813736Y-81280000D01*
D27*
X30653158Y-28685503D02*
X27339244Y-25371589D01*
X37020697Y-35199069D02*
X37020697Y-40809825D01*
D26*
X55880000Y-48010000D02*
X54360000Y-49530000D01*
X55880000Y-44450000D02*
X55880000Y-48010000D01*
X68580000Y-37783990D02*
X71966667Y-34397323D01*
D27*
X73764223Y-36194879D02*
X127279427Y-36194879D01*
X37020697Y-35199069D02*
X71164921Y-35199069D01*
D26*
X65953792Y-111105624D02*
X64503792Y-112555624D01*
X80248660Y-119838625D02*
X66658848Y-119838625D01*
X65243743Y-93070239D02*
X66400239Y-93070239D01*
D27*
X15563953Y-25076047D02*
X17780000Y-22860000D01*
D26*
X138813736Y-85061349D02*
X137894491Y-85980594D01*
D27*
X17780000Y-112103866D02*
X15240000Y-114643866D01*
D26*
X135405344Y-25199754D02*
X136249081Y-26043491D01*
D27*
X17826945Y-121966945D02*
X64530528Y-121966945D01*
D26*
X135643856Y-78210826D02*
X137309366Y-78210826D01*
X131223022Y-28895543D02*
X131199089Y-28871610D01*
D27*
X51751000Y-46921000D02*
X54360000Y-49530000D01*
X131223022Y-32251284D02*
X142240000Y-43268262D01*
D26*
X134427191Y-32251284D02*
X131223022Y-32251284D01*
D27*
X127279427Y-36194879D02*
X131223022Y-32251284D01*
D26*
X82187777Y-112579296D02*
X80714105Y-111105624D01*
D27*
X20291589Y-25371589D02*
X27339244Y-25371589D01*
D26*
X134840775Y-60555652D02*
X139516427Y-55880000D01*
X80714105Y-111105624D02*
X65953792Y-111105624D01*
D27*
X142240000Y-53340000D02*
X142240000Y-55880000D01*
X22929361Y-17710639D02*
X17780000Y-22860000D01*
X142240000Y-55880000D02*
X142240000Y-78818655D01*
X15240000Y-119380000D02*
X17826945Y-121966945D01*
X37020697Y-29877170D02*
X35829030Y-28685503D01*
D28*
X135302338Y-53492906D02*
X139547094Y-53492906D01*
D26*
X134840775Y-60555652D02*
X134840775Y-57266421D01*
D27*
X35829030Y-28685503D02*
X30653158Y-28685503D01*
D26*
X138813736Y-79715196D02*
X138813736Y-81280000D01*
X131223022Y-32251284D02*
X131223022Y-28895543D01*
D27*
X35939341Y-19742570D02*
X29371175Y-19742570D01*
X142240000Y-43268262D02*
X142240000Y-50800000D01*
X17780000Y-22860000D02*
X20291589Y-25371589D01*
X15563953Y-31261220D02*
X15563953Y-25076047D01*
D26*
X139516427Y-55880000D02*
X142240000Y-55880000D01*
D27*
X39260959Y-43050087D02*
X43131872Y-46921000D01*
X27339244Y-17710639D02*
X22929361Y-17710639D01*
D26*
X131786589Y-25199754D02*
X135405344Y-25199754D01*
X68580000Y-41910000D02*
X68580000Y-37783990D01*
D27*
X142240000Y-50800000D02*
X142240000Y-53340000D01*
D26*
X137309366Y-78210826D02*
X138813736Y-79715196D01*
X66658848Y-119838625D02*
X64530528Y-121966945D01*
X137894491Y-85980594D02*
X135078061Y-85980594D01*
D27*
X38745436Y-42534564D02*
X39260959Y-43050087D01*
X142240000Y-78818655D02*
X135078061Y-85980594D01*
X71164921Y-35199069D02*
X71966667Y-34397323D01*
D28*
X139547094Y-53492906D02*
X142240000Y-50800000D01*
D26*
X136249081Y-26043491D02*
X136249081Y-30429394D01*
X135078061Y-81930594D02*
X138163142Y-81930594D01*
D27*
X15240000Y-114643866D02*
X15240000Y-119380000D01*
D26*
X82225483Y-121815448D02*
X80248660Y-119838625D01*
D27*
X37020697Y-35199069D02*
X37020697Y-29877170D01*
D26*
%TO.N,Net-(Q4-B)*%
X62539688Y-30289442D02*
X67170295Y-30289442D01*
X67170295Y-30289442D02*
X67174116Y-30285621D01*
D28*
%TO.N,ADC1_IN10*%
X81746915Y-117204549D02*
X82562524Y-117204549D01*
X82562524Y-117204549D02*
X87187777Y-112579296D01*
D26*
%TO.N,Net-(D5-A)*%
X65272386Y-60814390D02*
X66682325Y-60814390D01*
X66682325Y-60814390D02*
X71205233Y-56291482D01*
%TO.N,Net-(Q6-B)*%
X55845407Y-67651038D02*
X60421596Y-67651038D01*
X60421596Y-67651038D02*
X60479835Y-67709277D01*
%TO.N,Net-(Q9-B)*%
X55793387Y-88606962D02*
X57063387Y-89876962D01*
X57063387Y-89876962D02*
X60427815Y-89876962D01*
%TO.N,Phase3*%
X147320000Y-106101539D02*
X136681888Y-116739651D01*
X147320000Y-71120000D02*
X147320000Y-106101539D01*
X135643856Y-77260826D02*
X139244682Y-73660000D01*
X139447238Y-73660000D02*
X139447238Y-74405629D01*
X147320000Y-30480000D02*
X147320000Y-71120000D01*
X139447238Y-71015959D02*
X139447238Y-73660000D01*
X139244682Y-73660000D02*
X139447238Y-73660000D01*
%TO.N,Phase2*%
X144927522Y-27792478D02*
X144927522Y-91608727D01*
X139020592Y-48824652D02*
X139020592Y-48260000D01*
X139020592Y-49742056D02*
X138994806Y-49767842D01*
X147320000Y-25400000D02*
X144927522Y-27792478D01*
X139020592Y-45829420D02*
X139020592Y-48260000D01*
X135302338Y-52542906D02*
X139020592Y-48824652D01*
X139020592Y-48260000D02*
X139020592Y-49742056D01*
X144927522Y-91608727D02*
X138203982Y-98332267D01*
%TO.N,Phase1*%
X143930657Y-82129343D02*
X143930657Y-23709343D01*
X132080000Y-23956343D02*
X132080000Y-23802877D01*
X134620000Y-91440000D02*
X143930657Y-82129343D01*
X131786589Y-24249754D02*
X132080000Y-23956343D01*
X132080000Y-23802877D02*
X135562877Y-20320000D01*
X143930657Y-23709343D02*
X147320000Y-20320000D01*
X135562877Y-20320000D02*
X135562877Y-21642615D01*
X135562877Y-17977129D02*
X135562877Y-20320000D01*
%TO.N,Net-(U5B-+)*%
X119380000Y-96520000D02*
X119380000Y-103354281D01*
X113886621Y-107970000D02*
X112636621Y-109220000D01*
X114764281Y-107970000D02*
X113886621Y-107970000D01*
X119380000Y-103354281D02*
X114764281Y-107970000D01*
X124460000Y-91440000D02*
X119380000Y-96520000D01*
%TO.N,Net-(R17-Pad2)*%
X107286967Y-106191382D02*
X102920082Y-106191382D01*
X102920082Y-106191382D02*
X91906915Y-117204549D01*
%TO.N,Net-(U5C-+)*%
X124460000Y-109220000D02*
X124460000Y-109793017D01*
X119953017Y-114300000D02*
X115176621Y-114300000D01*
X124492999Y-109187001D02*
X124460000Y-109220000D01*
X124492999Y-94895396D02*
X124492999Y-109187001D01*
X115176621Y-114300000D02*
X112636621Y-116840000D01*
X124460000Y-109793017D02*
X119953017Y-114300000D01*
%TO.N,Net-(U5C--)*%
X128369955Y-121920000D02*
X111835660Y-121920000D01*
X133320319Y-126870364D02*
X128369955Y-121920000D01*
X111835660Y-121920000D02*
X110017191Y-120101531D01*
%TO.N,Net-(U5D-+)*%
X128019567Y-101648266D02*
X128019567Y-107223399D01*
X118402966Y-116840000D02*
X117716621Y-116840000D01*
X128019567Y-107223399D02*
X118402966Y-116840000D01*
%TO.N,Net-(R28-Pad2)*%
X128555967Y-116895435D02*
X122852056Y-116895435D01*
X122852056Y-116895435D02*
X122796621Y-116840000D01*
D28*
%TO.N,Net-(R30-Pad2)*%
X134597508Y-29221195D02*
X134597508Y-29782754D01*
X131786589Y-26149754D02*
X131786589Y-26410276D01*
X131786589Y-26410276D02*
X134597508Y-29221195D01*
%TO.N,Net-(R31-Pad2)*%
X135302338Y-54442906D02*
X132080000Y-57665244D01*
X132080000Y-57665244D02*
X132080000Y-66040000D01*
%TO.N,Net-(R32-Pad2)*%
X135643856Y-79160826D02*
X133288519Y-81516163D01*
X133288519Y-81516163D02*
X133003065Y-81516163D01*
D26*
%TO.N,TIM_CH2*%
X42850792Y-51804088D02*
X64793537Y-51804088D01*
D28*
X65797625Y-50800000D02*
X65797625Y-48502375D01*
X69480039Y-46089961D02*
X71120000Y-44450000D01*
X64793537Y-51804088D02*
X65797625Y-50800000D01*
D26*
X36402410Y-58252470D02*
X42850792Y-51804088D01*
D28*
X68210039Y-46089961D02*
X69480039Y-46089961D01*
X65797625Y-48502375D02*
X68210039Y-46089961D01*
D26*
%TO.N,TIM_CH3N*%
X48749304Y-88606962D02*
X57651077Y-79705189D01*
X57651077Y-76991393D02*
X68602470Y-66040000D01*
X45633387Y-88606962D02*
X48749304Y-88606962D01*
X57651077Y-79705189D02*
X57651077Y-76991393D01*
%TO.N,TIM_CH2N*%
X47133844Y-67651038D02*
X60103856Y-54681026D01*
X71159704Y-51705471D02*
X71159704Y-49486932D01*
X60103856Y-54681026D02*
X68184149Y-54681026D01*
D28*
X78740000Y-41910000D02*
X77421338Y-43228662D01*
X77421338Y-46933559D02*
X76731579Y-47623318D01*
D26*
X71159704Y-49486932D02*
X73023318Y-47623318D01*
X68184149Y-54681026D02*
X71159704Y-51705471D01*
X45685407Y-67651038D02*
X47133844Y-67651038D01*
D28*
X76731579Y-47623318D02*
X73023318Y-47623318D01*
X77421338Y-43228662D02*
X77421338Y-46933559D01*
D26*
%TO.N,TIM_CH3*%
X69095737Y-61559781D02*
X76819284Y-53836234D01*
X36350390Y-80986962D02*
X47067860Y-70269492D01*
X69095737Y-62984263D02*
X69095737Y-61559781D01*
D28*
X86360000Y-44450000D02*
X85145000Y-45665000D01*
X84331809Y-46497881D02*
X80007951Y-46497881D01*
D26*
X47067860Y-70269492D02*
X61810508Y-70269492D01*
D28*
X85145000Y-45665000D02*
X85145000Y-45684690D01*
X80007951Y-46497881D02*
X77487500Y-49018332D01*
X77487500Y-53168018D02*
X76819284Y-53836234D01*
X85145000Y-45684690D02*
X84331809Y-46497881D01*
X77487500Y-49018332D02*
X77487500Y-53168018D01*
D26*
X61810508Y-70269492D02*
X69095737Y-62984263D01*
D28*
%TO.N,ADC2_IN13*%
X38157677Y-112201796D02*
X41375768Y-108983705D01*
X87866295Y-108983705D02*
X91440000Y-105410000D01*
X41375768Y-108983705D02*
X87866295Y-108983705D01*
D26*
%TO.N,ADC1_IN4*%
X127977189Y-83879722D02*
X130078061Y-85980594D01*
X127629634Y-55068659D02*
X127629634Y-58344511D01*
X130078061Y-85980594D02*
X121033413Y-76935946D01*
X129205387Y-53492906D02*
X127629634Y-55068659D01*
X121033413Y-69363014D02*
X129840775Y-60555652D01*
X129511589Y-25199754D02*
X125381288Y-25199754D01*
X126498196Y-93182024D02*
X130078061Y-89602159D01*
X133027338Y-53492906D02*
X129205387Y-53492906D01*
X124046646Y-93182024D02*
X126498196Y-93182024D01*
X120278364Y-105719119D02*
X120278364Y-96950306D01*
X123914727Y-29942989D02*
X126223022Y-32251284D01*
X121033413Y-38986587D02*
X121920000Y-38100000D01*
X127977189Y-80413587D02*
X127977189Y-83879722D01*
X130179950Y-78210826D02*
X127977189Y-80413587D01*
X123914727Y-26666315D02*
X123914727Y-29942989D01*
X133368856Y-78210826D02*
X130179950Y-78210826D01*
X120278364Y-96950306D02*
X124046646Y-93182024D01*
X130078061Y-89602159D02*
X130078061Y-85980594D01*
X125381288Y-25199754D02*
X123914727Y-26666315D01*
X121033413Y-76935946D02*
X121033413Y-69363014D01*
X121033413Y-69363014D02*
X121033413Y-38986587D01*
X127629634Y-58344511D02*
X129840775Y-60555652D01*
D28*
%TO.N,ADC2_IN12*%
X87225483Y-117292447D02*
X87225483Y-121815448D01*
X87293308Y-117224622D02*
X87225483Y-117292447D01*
D26*
%TO.N,ADC1_IN11*%
X44612856Y-100167144D02*
X86197144Y-100167144D01*
X17294668Y-116715617D02*
X18168249Y-116715617D01*
X86197144Y-100167144D02*
X88900000Y-102870000D01*
X24132070Y-110751796D02*
X34028204Y-110751796D01*
X18168249Y-116715617D02*
X22780000Y-112103866D01*
X34028204Y-110751796D02*
X44612856Y-100167144D01*
X22780000Y-112103866D02*
X24132070Y-110751796D01*
%TO.N,ADC2_IN6*%
X32020697Y-35199069D02*
X32020697Y-40130349D01*
X32020697Y-40130349D02*
X29100959Y-43050087D01*
X39263895Y-46456938D02*
X32507810Y-46456938D01*
X32507810Y-46456938D02*
X29100959Y-43050087D01*
%TO.N,Net-(U2--)*%
X129511589Y-24249754D02*
X125581835Y-20320000D01*
X125402877Y-17977129D02*
X125402877Y-20320000D01*
X125402877Y-20320000D02*
X125402877Y-21642615D01*
X125581835Y-20320000D02*
X125402877Y-20320000D01*
%TO.N,Net-(U3--)*%
X128507842Y-49767842D02*
X128834806Y-49767842D01*
X128860592Y-45829420D02*
X128860592Y-48260000D01*
X128860592Y-49742056D02*
X128834806Y-49767842D01*
X128860592Y-48376160D02*
X128860592Y-48260000D01*
X128860592Y-48260000D02*
X128860592Y-49742056D01*
X124460000Y-45720000D02*
X128507842Y-49767842D01*
X124460000Y-45720000D02*
X128751172Y-45720000D01*
X128751172Y-45720000D02*
X128860592Y-45829420D01*
X133027338Y-52542906D02*
X128860592Y-48376160D01*
%TO.N,Net-(U4--)*%
X124460000Y-71120000D02*
X129183197Y-71120000D01*
X133368856Y-77260826D02*
X129768030Y-73660000D01*
X129768030Y-73660000D02*
X129287238Y-73660000D01*
X129183197Y-71120000D02*
X129287238Y-71015959D01*
X129287238Y-71015959D02*
X129287238Y-73660000D01*
X129287238Y-73660000D02*
X129287238Y-74405629D01*
X124460000Y-71120000D02*
X126001609Y-71120000D01*
X126001609Y-71120000D02*
X129287238Y-74405629D01*
%TD*%
M02*
