%TF.GenerationSoftware,KiCad,Pcbnew,7.0.8*%
%TF.CreationDate,2024-01-04T13:34:46+01:00*%
%TF.ProjectId,Inverter F446,496e7665-7274-4657-9220-463434362e6b,rev?*%
%TF.SameCoordinates,Original*%
%TF.FileFunction,Soldermask,Top*%
%TF.FilePolarity,Negative*%
%FSLAX46Y46*%
G04 Gerber Fmt 4.6, Leading zero omitted, Abs format (unit mm)*
G04 Created by KiCad (PCBNEW 7.0.8) date 2024-01-04 13:34:46*
%MOMM*%
%LPD*%
G01*
G04 APERTURE LIST*
G04 Aperture macros list*
%AMRoundRect*
0 Rectangle with rounded corners*
0 $1 Rounding radius*
0 $2 $3 $4 $5 $6 $7 $8 $9 X,Y pos of 4 corners*
0 Add a 4 corners polygon primitive as box body*
4,1,4,$2,$3,$4,$5,$6,$7,$8,$9,$2,$3,0*
0 Add four circle primitives for the rounded corners*
1,1,$1+$1,$2,$3*
1,1,$1+$1,$4,$5*
1,1,$1+$1,$6,$7*
1,1,$1+$1,$8,$9*
0 Add four rect primitives between the rounded corners*
20,1,$1+$1,$2,$3,$4,$5,0*
20,1,$1+$1,$4,$5,$6,$7,0*
20,1,$1+$1,$6,$7,$8,$9,0*
20,1,$1+$1,$8,$9,$2,$3,0*%
G04 Aperture macros list end*
%ADD10C,2.000000*%
%ADD11C,1.600000*%
%ADD12O,1.600000X1.600000*%
%ADD13R,1.600000X1.600000*%
%ADD14R,1.500000X1.050000*%
%ADD15O,1.500000X1.050000*%
%ADD16C,2.400000*%
%ADD17O,2.400000X2.400000*%
%ADD18R,3.000000X3.000000*%
%ADD19C,3.000000*%
%ADD20RoundRect,0.102000X0.802500X-0.802500X0.802500X0.802500X-0.802500X0.802500X-0.802500X-0.802500X0*%
%ADD21C,1.809000*%
%ADD22RoundRect,0.102000X0.765000X-0.765000X0.765000X0.765000X-0.765000X0.765000X-0.765000X-0.765000X0*%
%ADD23C,1.734000*%
%ADD24RoundRect,0.150000X0.512500X0.150000X-0.512500X0.150000X-0.512500X-0.150000X0.512500X-0.150000X0*%
G04 APERTURE END LIST*
D10*
%TO.C,C12*%
X109220000Y-55860000D03*
X109220000Y-60860000D03*
%TD*%
D11*
%TO.C,R37*%
X39260959Y-43050087D03*
D12*
X29100959Y-43050087D03*
%TD*%
D13*
%TO.C,D2*%
X62339688Y-19656242D03*
D12*
X62339688Y-27276242D03*
%TD*%
D10*
%TO.C,C24*%
X130078061Y-85980594D03*
X135078061Y-85980594D03*
%TD*%
D14*
%TO.C,Q3*%
X57274523Y-20926242D03*
D15*
X57274523Y-22196242D03*
X57274523Y-23466242D03*
%TD*%
D16*
%TO.C,L6*%
X79586667Y-33127323D03*
D17*
X79586667Y-17887323D03*
%TD*%
D13*
%TO.C,C7*%
X27339244Y-22871589D03*
D11*
X27339244Y-25371589D03*
%TD*%
D16*
%TO.C,L16*%
X124460000Y-86360000D03*
D17*
X124460000Y-71120000D03*
%TD*%
D11*
%TO.C,R5*%
X45685407Y-67651038D03*
D12*
X55845407Y-67651038D03*
%TD*%
D11*
%TO.C,R14*%
X114300000Y-92611804D03*
D12*
X114300000Y-102771804D03*
%TD*%
D18*
%TO.C,J1*%
X17780000Y-22860000D03*
D19*
X17780000Y-17780000D03*
%TD*%
D11*
%TO.C,R1*%
X52379688Y-16701823D03*
D12*
X62539688Y-16701823D03*
%TD*%
D14*
%TO.C,Q8*%
X61147815Y-78446962D03*
D15*
X61147815Y-77176962D03*
X61147815Y-75906962D03*
%TD*%
D10*
%TO.C,C25*%
X87187777Y-112579296D03*
X82187777Y-112579296D03*
%TD*%
D11*
%TO.C,R22*%
X122815658Y-120253120D03*
D12*
X112655658Y-120253120D03*
%TD*%
D11*
%TO.C,R32*%
X64049887Y-126628662D03*
D12*
X74209887Y-126628662D03*
%TD*%
D11*
%TO.C,R25*%
X138179567Y-101648266D03*
D12*
X128019567Y-101648266D03*
%TD*%
D11*
%TO.C,R21*%
X133320319Y-116710364D03*
D12*
X133320319Y-126870364D03*
%TD*%
D10*
%TO.C,C34*%
X32020697Y-35199069D03*
X37020697Y-35199069D03*
%TD*%
D11*
%TO.C,R28*%
X128555967Y-127055435D03*
D12*
X128555967Y-116895435D03*
%TD*%
D13*
%TO.C,C32*%
X48260000Y-112346386D03*
D11*
X48260000Y-114846386D03*
%TD*%
%TO.C,R11*%
X134620000Y-91440000D03*
D12*
X124460000Y-91440000D03*
%TD*%
D11*
%TO.C,R40*%
X129287238Y-71015959D03*
D12*
X139447238Y-71015959D03*
%TD*%
D16*
%TO.C,L3*%
X113453332Y-33127323D03*
D17*
X113453332Y-17887323D03*
%TD*%
D11*
%TO.C,R10*%
X125402877Y-21642615D03*
D12*
X135562877Y-21642615D03*
%TD*%
D16*
%TO.C,L7*%
X71205233Y-56291482D03*
D17*
X86445233Y-56291482D03*
%TD*%
D10*
%TO.C,C21*%
X129840775Y-60555652D03*
X134840775Y-60555652D03*
%TD*%
D11*
%TO.C,R39*%
X128860592Y-45829420D03*
D12*
X139020592Y-45829420D03*
%TD*%
D19*
%TO.C,U1*%
X41910000Y-97790000D03*
X93980000Y-64770000D03*
X43180000Y-49530000D03*
D20*
X69600000Y-49530000D03*
D21*
X67060000Y-49530000D03*
X64520000Y-49530000D03*
X61980000Y-49530000D03*
X59440000Y-49530000D03*
X56900000Y-49530000D03*
X54360000Y-49530000D03*
X51820000Y-49530000D03*
X49280000Y-49530000D03*
X46740000Y-49530000D03*
D20*
X55880000Y-97790000D03*
D21*
X58420000Y-97790000D03*
X60960000Y-97790000D03*
X63500000Y-97790000D03*
X66040000Y-97790000D03*
X68580000Y-97790000D03*
X71120000Y-97790000D03*
X73660000Y-97790000D03*
D22*
X45720000Y-105410000D03*
D23*
X45720000Y-102870000D03*
X48260000Y-105410000D03*
X48260000Y-102870000D03*
X50800000Y-105410000D03*
X50800000Y-102870000D03*
X53340000Y-105410000D03*
X53340000Y-102870000D03*
X55880000Y-105410000D03*
X55880000Y-102870000D03*
X58420000Y-105410000D03*
X58420000Y-102870000D03*
X60960000Y-105410000D03*
X60960000Y-102870000D03*
X63500000Y-105410000D03*
X63500000Y-102870000D03*
X66040000Y-105410000D03*
X66040000Y-102870000D03*
X68580000Y-105410000D03*
X68580000Y-102870000D03*
X71120000Y-105410000D03*
X71120000Y-102870000D03*
X73660000Y-105410000D03*
X73660000Y-102870000D03*
X76200000Y-105410000D03*
X76200000Y-102870000D03*
X78740000Y-105410000D03*
X78740000Y-102870000D03*
X81280000Y-105410000D03*
X81280000Y-102870000D03*
X83820000Y-105410000D03*
X83820000Y-102870000D03*
X86360000Y-105410000D03*
X86360000Y-102870000D03*
X88900000Y-105410000D03*
X88900000Y-102870000D03*
X91440000Y-105410000D03*
X91440000Y-102870000D03*
D20*
X78740000Y-97790000D03*
D21*
X81280000Y-97790000D03*
X83820000Y-97790000D03*
X86360000Y-97790000D03*
X88900000Y-97790000D03*
X91440000Y-97790000D03*
D20*
X91440000Y-49530000D03*
D21*
X88900000Y-49530000D03*
X86360000Y-49530000D03*
X83820000Y-49530000D03*
X81280000Y-49530000D03*
X78740000Y-49530000D03*
X76200000Y-49530000D03*
X73660000Y-49530000D03*
D22*
X45720000Y-44450000D03*
D23*
X45720000Y-41910000D03*
X48260000Y-44450000D03*
X48260000Y-41910000D03*
X50800000Y-44450000D03*
X50800000Y-41910000D03*
X53340000Y-44450000D03*
X53340000Y-41910000D03*
X55880000Y-44450000D03*
X55880000Y-41910000D03*
X58420000Y-44450000D03*
X58420000Y-41910000D03*
X60960000Y-44450000D03*
X60960000Y-41910000D03*
X63500000Y-44450000D03*
X63500000Y-41910000D03*
X66040000Y-44450000D03*
X66040000Y-41910000D03*
X68580000Y-44450000D03*
X68580000Y-41910000D03*
X71120000Y-44450000D03*
X71120000Y-41910000D03*
X73660000Y-44450000D03*
X73660000Y-41910000D03*
X76200000Y-44450000D03*
X76200000Y-41910000D03*
X78740000Y-44450000D03*
X78740000Y-41910000D03*
X81280000Y-44450000D03*
X81280000Y-41910000D03*
X83820000Y-44450000D03*
X83820000Y-41910000D03*
X86360000Y-44450000D03*
X86360000Y-41910000D03*
X88900000Y-44450000D03*
X88900000Y-41910000D03*
X91440000Y-44450000D03*
X91440000Y-41910000D03*
%TD*%
D10*
%TO.C,C30*%
X69530528Y-121966945D03*
X64530528Y-121966945D03*
%TD*%
D16*
%TO.C,L15*%
X117686665Y-86360000D03*
D17*
X117686665Y-71120000D03*
%TD*%
D11*
%TO.C,R6*%
X45643489Y-53947960D03*
D12*
X55803489Y-53947960D03*
%TD*%
D11*
%TO.C,R31*%
X32730388Y-116927792D03*
D12*
X42890388Y-116927792D03*
%TD*%
D11*
%TO.C,R24*%
X91932762Y-126311292D03*
D12*
X81772762Y-126311292D03*
%TD*%
D11*
%TO.C,R18*%
X129287238Y-74405629D03*
D12*
X139447238Y-74405629D03*
%TD*%
D11*
%TO.C,R26*%
X136681888Y-116739651D03*
D12*
X136681888Y-126899651D03*
%TD*%
D10*
%TO.C,C13*%
X102446667Y-71040000D03*
X102446667Y-76040000D03*
%TD*%
D13*
%TO.C,D3*%
X71966667Y-26777323D03*
D12*
X71966667Y-34397323D03*
%TD*%
D16*
%TO.C,L11*%
X124460000Y-60960000D03*
D17*
X124460000Y-45720000D03*
%TD*%
D11*
%TO.C,R36*%
X39263895Y-46456938D03*
D12*
X29103895Y-46456938D03*
%TD*%
D10*
%TO.C,C19*%
X126223022Y-32251284D03*
X131223022Y-32251284D03*
%TD*%
D16*
%TO.C,L9*%
X71120000Y-68580000D03*
D17*
X86360000Y-68580000D03*
%TD*%
D11*
%TO.C,R7*%
X36350390Y-80986962D03*
D12*
X46510390Y-80986962D03*
%TD*%
D10*
%TO.C,C23*%
X102884990Y-110277675D03*
X102884990Y-115277675D03*
%TD*%
D14*
%TO.C,Q2*%
X67894116Y-21328393D03*
D15*
X67894116Y-20058393D03*
X67894116Y-18788393D03*
%TD*%
D24*
%TO.C,U4*%
X135643856Y-79160826D03*
X135643856Y-78210826D03*
X135643856Y-77260826D03*
X133368856Y-77260826D03*
X133368856Y-78210826D03*
X133368856Y-79160826D03*
%TD*%
D10*
%TO.C,C3*%
X99906666Y-27914127D03*
X99906666Y-32914127D03*
%TD*%
%TO.C,C28*%
X22780000Y-112103866D03*
X17780000Y-112103866D03*
%TD*%
D11*
%TO.C,R29*%
X74228929Y-117082212D03*
D12*
X64068929Y-117082212D03*
%TD*%
D16*
%TO.C,L12*%
X71120000Y-78740000D03*
D17*
X86360000Y-78740000D03*
%TD*%
D16*
%TO.C,L14*%
X71053576Y-90563547D03*
D17*
X86293576Y-90563547D03*
%TD*%
D10*
%TO.C,C22*%
X130078061Y-81930594D03*
X135078061Y-81930594D03*
%TD*%
%TO.C,C20*%
X129840775Y-57266421D03*
X134840775Y-57266421D03*
%TD*%
D14*
%TO.C,Q9*%
X60427815Y-88606962D03*
D15*
X60427815Y-89876962D03*
X60427815Y-91146962D03*
%TD*%
D13*
%TO.C,D4*%
X55566016Y-56982470D03*
D12*
X55566016Y-64602470D03*
%TD*%
D10*
%TO.C,C6*%
X35939341Y-14742570D03*
X35939341Y-19742570D03*
%TD*%
D11*
%TO.C,R17*%
X107286967Y-96031382D03*
D12*
X107286967Y-106191382D03*
%TD*%
D10*
%TO.C,C4*%
X106679999Y-27914127D03*
X106679999Y-32914127D03*
%TD*%
D13*
%TO.C,C8*%
X27339244Y-15210639D03*
D11*
X27339244Y-17710639D03*
%TD*%
%TO.C,R27*%
X122956641Y-123783096D03*
D12*
X112796641Y-123783096D03*
%TD*%
D10*
%TO.C,C5*%
X35829030Y-23685503D03*
X35829030Y-28685503D03*
%TD*%
D16*
%TO.C,L8*%
X71120000Y-62535377D03*
D17*
X86360000Y-62535377D03*
%TD*%
D10*
%TO.C,C16*%
X109220000Y-81180000D03*
X109220000Y-86180000D03*
%TD*%
%TO.C,C14*%
X109220000Y-71040000D03*
X109220000Y-76040000D03*
%TD*%
%TO.C,C27*%
X69503792Y-112555624D03*
X64503792Y-112555624D03*
%TD*%
%TO.C,C9*%
X102446667Y-45720000D03*
X102446667Y-50720000D03*
%TD*%
D16*
%TO.C,L1*%
X86360000Y-33020000D03*
D17*
X86360000Y-17780000D03*
%TD*%
D13*
%TO.C,D8*%
X65240351Y-74929895D03*
D12*
X65240351Y-82549895D03*
%TD*%
D10*
%TO.C,C10*%
X109220000Y-45720000D03*
X109220000Y-50720000D03*
%TD*%
D13*
%TO.C,D5*%
X65272386Y-53194390D03*
D12*
X65272386Y-60814390D03*
%TD*%
D10*
%TO.C,C26*%
X87225483Y-121815448D03*
X82225483Y-121815448D03*
%TD*%
D11*
%TO.C,R38*%
X125402877Y-17977129D03*
D12*
X135562877Y-17977129D03*
%TD*%
D11*
%TO.C,R4*%
X36402410Y-58252470D03*
D12*
X46562410Y-58252470D03*
%TD*%
D11*
%TO.C,R3*%
X52379688Y-30289442D03*
D12*
X62539688Y-30289442D03*
%TD*%
D14*
%TO.C,Q5*%
X61199835Y-58514732D03*
D15*
X61199835Y-57244732D03*
X61199835Y-55974732D03*
%TD*%
D11*
%TO.C,R8*%
X45633387Y-88606962D03*
D12*
X55793387Y-88606962D03*
%TD*%
D11*
%TO.C,R15*%
X128834806Y-49767842D03*
D12*
X138994806Y-49767842D03*
%TD*%
D10*
%TO.C,C29*%
X38157677Y-112201796D03*
X33157677Y-112201796D03*
%TD*%
D13*
%TO.C,D1*%
X71966667Y-15830566D03*
D12*
X71966667Y-23450566D03*
%TD*%
D11*
%TO.C,R16*%
X120278364Y-105719119D03*
D12*
X110118364Y-105719119D03*
%TD*%
D11*
%TO.C,R9*%
X45591469Y-74825039D03*
D12*
X55751469Y-74825039D03*
%TD*%
D13*
%TO.C,D7*%
X55375315Y-78048918D03*
D12*
X55375315Y-85668918D03*
%TD*%
D16*
%TO.C,L13*%
X71120000Y-84718198D03*
D17*
X86360000Y-84718198D03*
%TD*%
D13*
%TO.C,C33*%
X20563953Y-31261220D03*
D11*
X15563953Y-31261220D03*
%TD*%
D10*
%TO.C,C1*%
X99906666Y-17774127D03*
X99906666Y-22774127D03*
%TD*%
D14*
%TO.C,Q1*%
X50500851Y-58252470D03*
D15*
X50500851Y-59522470D03*
X50500851Y-60792470D03*
%TD*%
D13*
%TO.C,D9*%
X65243743Y-85450239D03*
D12*
X65243743Y-93070239D03*
%TD*%
D10*
%TO.C,C17*%
X126199089Y-28871610D03*
X131199089Y-28871610D03*
%TD*%
D11*
%TO.C,R30*%
X17294668Y-116715617D03*
D12*
X27454668Y-116715617D03*
%TD*%
D14*
%TO.C,Q6*%
X60479835Y-66439277D03*
D15*
X60479835Y-67709277D03*
X60479835Y-68979277D03*
%TD*%
D16*
%TO.C,L2*%
X93133333Y-32964127D03*
D17*
X93133333Y-17724127D03*
%TD*%
D11*
%TO.C,R2*%
X43176082Y-22177431D03*
D12*
X53336082Y-22177431D03*
%TD*%
D10*
%TO.C,C11*%
X102446667Y-55860000D03*
X102446667Y-60860000D03*
%TD*%
%TO.C,C15*%
X102446667Y-81180000D03*
X102446667Y-86180000D03*
%TD*%
%TO.C,C31*%
X55999631Y-111028765D03*
X55999631Y-116028765D03*
%TD*%
D11*
%TO.C,R20*%
X134652999Y-94895396D03*
D12*
X124492999Y-94895396D03*
%TD*%
D10*
%TO.C,C18*%
X117629435Y-102268518D03*
X117629435Y-97268518D03*
%TD*%
D13*
%TO.C,U5*%
X122796621Y-109220000D03*
D12*
X120256621Y-109220000D03*
X117716621Y-109220000D03*
X115176621Y-109220000D03*
X112636621Y-109220000D03*
X110096621Y-109220000D03*
X107556621Y-109220000D03*
X107556621Y-116840000D03*
X110096621Y-116840000D03*
X112636621Y-116840000D03*
X115176621Y-116840000D03*
X117716621Y-116840000D03*
X120256621Y-116840000D03*
X122796621Y-116840000D03*
%TD*%
D18*
%TO.C,J2*%
X147320000Y-30480000D03*
D19*
X147320000Y-25400000D03*
X147320000Y-20320000D03*
%TD*%
D11*
%TO.C,R23*%
X110017191Y-120101531D03*
D12*
X99857191Y-120101531D03*
%TD*%
D24*
%TO.C,U2*%
X131786589Y-26149754D03*
X131786589Y-25199754D03*
X131786589Y-24249754D03*
X129511589Y-24249754D03*
X129511589Y-25199754D03*
X129511589Y-26149754D03*
%TD*%
D16*
%TO.C,L4*%
X120226667Y-33127323D03*
D17*
X120226667Y-17887323D03*
%TD*%
D24*
%TO.C,U3*%
X135302338Y-54442906D03*
X135302338Y-53492906D03*
X135302338Y-52542906D03*
X133027338Y-52542906D03*
X133027338Y-53492906D03*
X133027338Y-54442906D03*
%TD*%
D10*
%TO.C,C2*%
X106679999Y-17774127D03*
X106679999Y-22774127D03*
%TD*%
D11*
%TO.C,R12*%
X138203982Y-98332267D03*
D12*
X128043982Y-98332267D03*
%TD*%
D13*
%TO.C,D6*%
X65272386Y-63899492D03*
D12*
X65272386Y-71519492D03*
%TD*%
D16*
%TO.C,L10*%
X117686665Y-60960000D03*
D17*
X117686665Y-45720000D03*
%TD*%
D11*
%TO.C,R19*%
X91906915Y-117204549D03*
D12*
X81746915Y-117204549D03*
%TD*%
D14*
%TO.C,Q4*%
X67174116Y-29015621D03*
D15*
X67174116Y-30285621D03*
X67174116Y-31555621D03*
%TD*%
D11*
%TO.C,R13*%
X110880422Y-102655886D03*
D12*
X110880422Y-92495886D03*
%TD*%
D14*
%TO.C,Q7*%
X50560678Y-79703833D03*
D15*
X50560678Y-80973833D03*
X50560678Y-82243833D03*
%TD*%
M02*
