M48
; DRILL file {KiCad 7.0.8} date Thu Jan  4 13:34:35 2024
; FORMAT={-:-/ absolute / inch / decimal}
; #@! TF.CreationDate,2024-01-04T13:34:35+01:00
; #@! TF.GenerationSoftware,Kicad,Pcbnew,7.0.8
; #@! TF.FileFunction,Plated,1,2,PTH
FMAT,2
INCH
; #@! TA.AperFunction,Plated,PTH,ViaDrill
T1C0.0157
; #@! TA.AperFunction,Plated,PTH,ComponentDrill
T2C0.0295
; #@! TA.AperFunction,Plated,PTH,ComponentDrill
T3C0.0315
; #@! TA.AperFunction,Plated,PTH,ComponentDrill
T4C0.0394
; #@! TA.AperFunction,Plated,PTH,ComponentDrill
T5C0.0402
; #@! TA.AperFunction,Plated,PTH,ComponentDrill
T6C0.0421
; #@! TA.AperFunction,Plated,PTH,ComponentDrill
T7C0.0472
; #@! TA.AperFunction,Plated,PTH,ComponentDrill
T8C0.0598
%
G90
G05
T1
X2.7009Y-2.6
X3.4367Y-4.6151
X3.9Y-3.9
X4.8Y-1.5
X5.2Y-2.6
X5.2363Y-3.2093
X5.2991Y-1.1725
X5.8Y-2.8
T2
X1.9882Y-2.2934
X1.9882Y-2.3434
X1.9882Y-2.3934
X1.9906Y-3.1379
X1.9906Y-3.1879
X1.9906Y-3.2379
X2.2549Y-0.8239
X2.2549Y-0.8739
X2.2549Y-0.9239
X2.379Y-3.4885
X2.379Y-3.5385
X2.379Y-3.5885
X2.3811Y-2.6157
X2.3811Y-2.6657
X2.3811Y-2.7157
X2.4074Y-2.9885
X2.4074Y-3.0385
X2.4074Y-3.0885
X2.4094Y-2.2037
X2.4094Y-2.2537
X2.4094Y-2.3037
X2.6447Y-1.1423
X2.6447Y-1.1923
X2.6447Y-1.2423
X2.673Y-0.7397
X2.673Y-0.7897
X2.673Y-0.8397
T3
X0.6128Y-1.2308
X0.6809Y-4.5951
X0.8096Y-1.2308
X1.0763Y-0.5988
X1.0763Y-0.6973
X1.0763Y-0.9005
X1.0763Y-0.9989
X1.0809Y-4.5951
X1.1457Y-1.6949
X1.1458Y-1.829
X1.2886Y-4.6035
X1.4311Y-3.1885
X1.4332Y-2.2934
X1.5457Y-1.6949
X1.5458Y-1.829
X1.6886Y-4.6035
X1.6998Y-0.8731
X1.7949Y-2.9459
X1.7966Y-3.4885
X1.797Y-2.1239
X1.7986Y-2.6634
X1.8311Y-3.1885
X1.8332Y-2.2934
X1.9Y-4.4231
X1.9Y-4.5215
X2.0622Y-0.6576
X2.0622Y-1.1925
X2.0998Y-0.8731
X2.1801Y-3.0728
X2.1801Y-3.3728
X2.1876Y-2.2434
X2.1876Y-2.5434
X2.1949Y-2.9459
X2.1966Y-3.4885
X2.197Y-2.1239
X2.1986Y-2.6634
X2.4543Y-0.7739
X2.4543Y-1.0739
X2.4622Y-0.6576
X2.4622Y-1.1925
X2.5216Y-4.9854
X2.5224Y-4.6095
X2.5685Y-2.95
X2.5685Y-3.25
X2.5687Y-3.3642
X2.5687Y-3.6642
X2.5698Y-2.0943
X2.5698Y-2.3943
X2.5698Y-2.5157
X2.5698Y-2.8157
X2.8333Y-0.6233
X2.8333Y-0.9233
X2.8333Y-1.0542
X2.8333Y-1.3542
X2.9216Y-4.9854
X2.9224Y-4.6095
X3.2184Y-4.6144
X3.2194Y-4.9729
X3.6184Y-4.6144
X3.6194Y-4.9729
X3.9314Y-4.7284
X4.2239Y-3.7808
X4.2239Y-4.1808
X4.2345Y-4.3
X4.2345Y-4.6
X4.3314Y-4.7284
X4.3345Y-4.3
X4.3345Y-4.6
X4.3354Y-4.1622
X4.3654Y-3.6416
X4.3654Y-4.0416
X4.4345Y-4.3
X4.4345Y-4.6
X4.4353Y-4.7344
X4.4408Y-4.8734
X4.5Y-3.6461
X4.5Y-4.0461
X4.5345Y-4.3
X4.5345Y-4.6
X4.6345Y-4.3
X4.6345Y-4.6
X4.7345Y-4.3
X4.7345Y-4.6
X4.7354Y-4.1622
X4.8345Y-4.3
X4.8345Y-4.6
X4.8353Y-4.7344
X4.8408Y-4.8734
X4.9Y-3.6
X4.9013Y-3.736
X4.9371Y-0.7078
X4.9371Y-0.8521
X5.0401Y-4.0019
X5.0411Y-3.8713
X5.0613Y-4.6022
X5.0613Y-5.0022
X5.0722Y-1.9594
X5.0733Y-1.8043
X5.09Y-2.7959
X5.09Y-2.9294
X5.2488Y-4.5949
X5.2488Y-4.9949
X5.3Y-3.6
X5.3013Y-3.736
X5.3371Y-0.7078
X5.3371Y-0.8521
X5.3812Y-4.596
X5.3812Y-4.996
X5.4401Y-4.0019
X5.4411Y-3.8713
X5.4722Y-1.9594
X5.4733Y-1.8043
X5.49Y-2.7959
X5.49Y-2.9294
T4
X0.7Y-4.4135
X0.8969Y-4.4135
X1.2607Y-1.3858
X1.3054Y-4.4174
X1.4106Y-0.9325
X1.4106Y-1.1294
X1.4149Y-0.5804
X1.4149Y-0.7773
X1.4575Y-1.3858
X1.5023Y-4.4174
X2.2047Y-4.3712
X2.2047Y-4.5681
X2.5395Y-4.4313
X2.5406Y-4.8018
X2.7364Y-4.4313
X2.7374Y-4.8018
X3.2357Y-4.4323
X3.2372Y-4.7959
X3.4326Y-4.4323
X3.4341Y-4.7959
X3.9333Y-0.6998
X3.9333Y-0.8966
X3.9333Y-1.099
X3.9333Y-1.2958
X4.0333Y-1.8
X4.0333Y-1.9969
X4.0333Y-2.1992
X4.0333Y-2.3961
X4.0333Y-2.7969
X4.0333Y-2.9937
X4.0333Y-3.1961
X4.0333Y-3.3929
X4.0506Y-4.3416
X4.0506Y-4.5385
X4.2Y-0.6998
X4.2Y-0.8966
X4.2Y-1.099
X4.2Y-1.2958
X4.3Y-1.8
X4.3Y-1.9969
X4.3Y-2.1992
X4.3Y-2.3961
X4.3Y-2.7969
X4.3Y-2.9937
X4.3Y-3.1961
X4.3Y-3.3929
X4.6311Y-3.8295
X4.6311Y-4.0263
X4.9685Y-1.1367
X4.9694Y-1.2697
X5.1118Y-2.2546
X5.1118Y-2.3841
X5.1212Y-3.2256
X5.1212Y-3.3851
X5.1653Y-1.1367
X5.1663Y-1.2697
X5.3087Y-2.2546
X5.3087Y-2.3841
X5.318Y-3.2256
X5.318Y-3.3851
T5
X1.8Y-1.65
X1.8Y-1.75
X1.8Y-4.05
X1.8Y-4.15
X1.9Y-1.65
X1.9Y-1.75
X1.9Y-4.05
X1.9Y-4.15
X2.0Y-1.65
X2.0Y-1.75
X2.0Y-4.05
X2.0Y-4.15
X2.1Y-1.65
X2.1Y-1.75
X2.1Y-4.05
X2.1Y-4.15
X2.2Y-1.65
X2.2Y-1.75
X2.2Y-4.05
X2.2Y-4.15
X2.3Y-1.65
X2.3Y-1.75
X2.3Y-4.05
X2.3Y-4.15
X2.4Y-1.65
X2.4Y-1.75
X2.4Y-4.05
X2.4Y-4.15
X2.5Y-1.65
X2.5Y-1.75
X2.5Y-4.05
X2.5Y-4.15
X2.6Y-1.65
X2.6Y-1.75
X2.6Y-4.05
X2.6Y-4.15
X2.7Y-1.65
X2.7Y-1.75
X2.7Y-4.05
X2.7Y-4.15
X2.8Y-1.65
X2.8Y-1.75
X2.8Y-4.05
X2.8Y-4.15
X2.9Y-1.65
X2.9Y-1.75
X2.9Y-4.05
X2.9Y-4.15
X3.0Y-1.65
X3.0Y-1.75
X3.0Y-4.05
X3.0Y-4.15
X3.1Y-1.65
X3.1Y-1.75
X3.1Y-4.05
X3.1Y-4.15
X3.2Y-1.65
X3.2Y-1.75
X3.2Y-4.05
X3.2Y-4.15
X3.3Y-1.65
X3.3Y-1.75
X3.3Y-4.05
X3.3Y-4.15
X3.4Y-1.65
X3.4Y-1.75
X3.4Y-4.05
X3.4Y-4.15
X3.5Y-1.65
X3.5Y-1.75
X3.5Y-4.05
X3.5Y-4.15
X3.6Y-1.65
X3.6Y-1.75
X3.6Y-4.05
X3.6Y-4.15
T6
X1.8402Y-1.95
X1.9402Y-1.95
X2.0402Y-1.95
X2.1402Y-1.95
X2.2Y-3.85
X2.2402Y-1.95
X2.3Y-3.85
X2.3402Y-1.95
X2.4Y-3.85
X2.4402Y-1.95
X2.5Y-3.85
X2.5402Y-1.95
X2.6Y-3.85
X2.6402Y-1.95
X2.7Y-3.85
X2.7402Y-1.95
X2.8Y-3.85
X2.9Y-1.95
X2.9Y-3.85
X3.0Y-1.95
X3.1Y-1.95
X3.1Y-3.85
X3.2Y-1.95
X3.2Y-3.85
X3.3Y-1.95
X3.3Y-3.85
X3.4Y-1.95
X3.4Y-3.85
X3.5Y-1.95
X3.5Y-3.85
X3.6Y-1.95
X3.6Y-3.85
T7
X2.7974Y-3.5655
X2.8Y-2.462
X2.8Y-2.7
X2.8Y-3.1
X2.8Y-3.3354
X2.8034Y-2.2162
X3.1333Y-0.7042
X3.1333Y-1.3042
X3.3974Y-3.5655
X3.4Y-0.7
X3.4Y-1.3
X3.4Y-2.462
X3.4Y-2.7
X3.4Y-3.1
X3.4Y-3.3354
X3.4034Y-2.2162
X3.6667Y-0.6978
X3.6667Y-1.2978
X4.4667Y-0.7042
X4.4667Y-1.3042
X4.6333Y-1.8
X4.6333Y-2.4
X4.6333Y-2.8
X4.6333Y-3.4
X4.7333Y-0.7042
X4.7333Y-1.3042
X4.9Y-1.8
X4.9Y-2.4
X4.9Y-2.8
X4.9Y-3.4
T8
X0.7Y-0.7
X0.7Y-0.9
X5.8Y-0.8
X5.8Y-1.0
X5.8Y-1.2
T0
M30
