%TF.GenerationSoftware,KiCad,Pcbnew,7.0.8*%
%TF.CreationDate,2024-01-04T13:34:46+01:00*%
%TF.ProjectId,Inverter F446,496e7665-7274-4657-9220-463434362e6b,rev?*%
%TF.SameCoordinates,Original*%
%TF.FileFunction,Copper,L2,Bot*%
%TF.FilePolarity,Positive*%
%FSLAX46Y46*%
G04 Gerber Fmt 4.6, Leading zero omitted, Abs format (unit mm)*
G04 Created by KiCad (PCBNEW 7.0.8) date 2024-01-04 13:34:46*
%MOMM*%
%LPD*%
G01*
G04 APERTURE LIST*
%TA.AperFunction,ComponentPad*%
%ADD10C,2.000000*%
%TD*%
%TA.AperFunction,ComponentPad*%
%ADD11C,1.600000*%
%TD*%
%TA.AperFunction,ComponentPad*%
%ADD12O,1.600000X1.600000*%
%TD*%
%TA.AperFunction,ComponentPad*%
%ADD13R,1.600000X1.600000*%
%TD*%
%TA.AperFunction,ComponentPad*%
%ADD14R,1.500000X1.050000*%
%TD*%
%TA.AperFunction,ComponentPad*%
%ADD15O,1.500000X1.050000*%
%TD*%
%TA.AperFunction,ComponentPad*%
%ADD16C,2.400000*%
%TD*%
%TA.AperFunction,ComponentPad*%
%ADD17O,2.400000X2.400000*%
%TD*%
%TA.AperFunction,ComponentPad*%
%ADD18R,3.000000X3.000000*%
%TD*%
%TA.AperFunction,ComponentPad*%
%ADD19C,3.000000*%
%TD*%
%TA.AperFunction,ComponentPad*%
%ADD20R,1.605000X1.605000*%
%TD*%
%TA.AperFunction,ComponentPad*%
%ADD21C,1.605000*%
%TD*%
%TA.AperFunction,ComponentPad*%
%ADD22R,1.530000X1.530000*%
%TD*%
%TA.AperFunction,ComponentPad*%
%ADD23C,1.530000*%
%TD*%
%TA.AperFunction,ViaPad*%
%ADD24C,0.800000*%
%TD*%
%TA.AperFunction,Conductor*%
%ADD25C,0.500000*%
%TD*%
%TA.AperFunction,Conductor*%
%ADD26C,1.000000*%
%TD*%
%TA.AperFunction,Conductor*%
%ADD27C,0.250000*%
%TD*%
G04 APERTURE END LIST*
D10*
%TO.P,C12,1*%
%TO.N,Net-(C10-Pad1)*%
X109220000Y-55860000D03*
%TO.P,C12,2*%
%TO.N,GND1*%
X109220000Y-60860000D03*
%TD*%
D11*
%TO.P,R37,1*%
%TO.N,GND*%
X39260959Y-43050087D03*
D12*
%TO.P,R37,2*%
%TO.N,ADC2_IN6*%
X29100959Y-43050087D03*
%TD*%
D13*
%TO.P,D2,1,K*%
%TO.N,Net-(D2-K)*%
X62339688Y-19656242D03*
D12*
%TO.P,D2,2,A*%
%TO.N,GND*%
X62339688Y-27276242D03*
%TD*%
D10*
%TO.P,C24,1*%
%TO.N,ADC1_IN4*%
X130078061Y-85980594D03*
%TO.P,C24,2*%
%TO.N,GND*%
X135078061Y-85980594D03*
%TD*%
D14*
%TO.P,Q3,1,C*%
%TO.N,Net-(D2-K)*%
X57274523Y-20926242D03*
D15*
%TO.P,Q3,2,B*%
%TO.N,Net-(Q3-B)*%
X57274523Y-22196242D03*
%TO.P,Q3,3,E*%
%TO.N,GND*%
X57274523Y-23466242D03*
%TD*%
D16*
%TO.P,L6,1,1*%
%TO.N,Net-(D1-A)*%
X79586667Y-33127323D03*
D17*
%TO.P,L6,2,2*%
%TO.N,Net-(L1-Pad1)*%
X79586667Y-17887323D03*
%TD*%
D13*
%TO.P,C7,1*%
%TO.N,+5V*%
X27339244Y-22871589D03*
D11*
%TO.P,C7,2*%
%TO.N,GND*%
X27339244Y-25371589D03*
%TD*%
D16*
%TO.P,L16,1,1*%
%TO.N,Net-(L15-Pad2)*%
X124460000Y-86360000D03*
D17*
%TO.P,L16,2,2*%
%TO.N,Net-(U4--)*%
X124460000Y-71120000D03*
%TD*%
D11*
%TO.P,R5,1*%
%TO.N,TIM_CH2N*%
X45685407Y-67651038D03*
D12*
%TO.P,R5,2*%
%TO.N,Net-(Q6-B)*%
X55845407Y-67651038D03*
%TD*%
D11*
%TO.P,R14,1*%
%TO.N,GND*%
X114300000Y-92611804D03*
D12*
%TO.P,R14,2*%
%TO.N,Net-(U5A-+)*%
X114300000Y-102771804D03*
%TD*%
D18*
%TO.P,J1,1,Pin_1*%
%TO.N,GND*%
X17780000Y-22860000D03*
D19*
%TO.P,J1,2,Pin_2*%
%TO.N,+5V*%
X17780000Y-17780000D03*
%TD*%
D11*
%TO.P,R1,1*%
%TO.N,Net-(D2-K)*%
X52379688Y-16701823D03*
D12*
%TO.P,R1,2*%
%TO.N,Net-(Q2-B)*%
X62539688Y-16701823D03*
%TD*%
D14*
%TO.P,Q8,1,C*%
%TO.N,Net-(D8-A)*%
X61147815Y-78446962D03*
D15*
%TO.P,Q8,2,B*%
%TO.N,Net-(Q8-B)*%
X61147815Y-77176962D03*
%TO.P,Q8,3,E*%
%TO.N,+5V*%
X61147815Y-75906962D03*
%TD*%
D10*
%TO.P,C25,1*%
%TO.N,ADC1_IN10*%
X87187777Y-112579296D03*
%TO.P,C25,2*%
%TO.N,GND*%
X82187777Y-112579296D03*
%TD*%
D11*
%TO.P,R22,1*%
%TO.N,ADC1_IN4*%
X122815658Y-120253120D03*
D12*
%TO.P,R22,2*%
%TO.N,Net-(U5C-+)*%
X112655658Y-120253120D03*
%TD*%
D11*
%TO.P,R32,1*%
%TO.N,ADC3_IN1*%
X64049887Y-126628662D03*
D12*
%TO.P,R32,2*%
%TO.N,Net-(R32-Pad2)*%
X74209887Y-126628662D03*
%TD*%
D11*
%TO.P,R25,1*%
%TO.N,Phase2*%
X138179567Y-101648266D03*
D12*
%TO.P,R25,2*%
%TO.N,Net-(U5D-+)*%
X128019567Y-101648266D03*
%TD*%
D11*
%TO.P,R21,1*%
%TO.N,Phase3*%
X133320319Y-116710364D03*
D12*
%TO.P,R21,2*%
%TO.N,Net-(U5C--)*%
X133320319Y-126870364D03*
%TD*%
D10*
%TO.P,C34,1*%
%TO.N,ADC2_IN6*%
X32020697Y-35199069D03*
%TO.P,C34,2*%
%TO.N,GND*%
X37020697Y-35199069D03*
%TD*%
D11*
%TO.P,R28,1*%
%TO.N,Net-(U5D--)*%
X128555967Y-127055435D03*
D12*
%TO.P,R28,2*%
%TO.N,Net-(R28-Pad2)*%
X128555967Y-116895435D03*
%TD*%
D13*
%TO.P,C32,1*%
%TO.N,Net-(U1A-E5V)*%
X48260000Y-112346386D03*
D11*
%TO.P,C32,2*%
%TO.N,GND*%
X48260000Y-114846386D03*
%TD*%
%TO.P,R11,1*%
%TO.N,Phase1*%
X134620000Y-91440000D03*
D12*
%TO.P,R11,2*%
%TO.N,Net-(U5B-+)*%
X124460000Y-91440000D03*
%TD*%
D11*
%TO.P,R40,1*%
%TO.N,Net-(U4--)*%
X129287238Y-71015959D03*
D12*
%TO.P,R40,2*%
%TO.N,Phase3*%
X139447238Y-71015959D03*
%TD*%
D16*
%TO.P,L3,1,1*%
%TO.N,Net-(C1-Pad1)*%
X113453332Y-33127323D03*
D17*
%TO.P,L3,2,2*%
%TO.N,Net-(L3-Pad2)*%
X113453332Y-17887323D03*
%TD*%
D11*
%TO.P,R10,1*%
%TO.N,Net-(U2--)*%
X125402877Y-21642615D03*
D12*
%TO.P,R10,2*%
%TO.N,Phase1*%
X135562877Y-21642615D03*
%TD*%
D16*
%TO.P,L7,1,1*%
%TO.N,Net-(D5-A)*%
X71205233Y-56291482D03*
D17*
%TO.P,L7,2,2*%
%TO.N,Net-(L7-Pad2)*%
X86445233Y-56291482D03*
%TD*%
D10*
%TO.P,C21,1*%
%TO.N,ADC1_IN4*%
X129840775Y-60555652D03*
%TO.P,C21,2*%
%TO.N,GND*%
X134840775Y-60555652D03*
%TD*%
D11*
%TO.P,R39,1*%
%TO.N,Net-(U3--)*%
X128860592Y-45829420D03*
D12*
%TO.P,R39,2*%
%TO.N,Phase2*%
X139020592Y-45829420D03*
%TD*%
D20*
%TO.P,U1,CN5_1,D8*%
%TO.N,unconnected-(U1F-D8-PadCN5_1)*%
X69600000Y-49530000D03*
D21*
%TO.P,U1,CN5_2,D9*%
%TO.N,unconnected-(U1F-D9-PadCN5_2)*%
X67060000Y-49530000D03*
%TO.P,U1,CN5_3,D10*%
%TO.N,unconnected-(U1F-D10-PadCN5_3)*%
X64520000Y-49530000D03*
%TO.P,U1,CN5_4,D11*%
%TO.N,unconnected-(U1F-D11-PadCN5_4)*%
X61980000Y-49530000D03*
%TO.P,U1,CN5_5,D12*%
%TO.N,unconnected-(U1F-D12-PadCN5_5)*%
X59440000Y-49530000D03*
%TO.P,U1,CN5_6,D13*%
%TO.N,unconnected-(U1F-D13-PadCN5_6)*%
X56900000Y-49530000D03*
%TO.P,U1,CN5_7,CN5_GND*%
%TO.N,GND*%
X54360000Y-49530000D03*
%TO.P,U1,CN5_8,AREF*%
%TO.N,unconnected-(U1F-AREF-PadCN5_8)*%
X51820000Y-49530000D03*
%TO.P,U1,CN5_9,D14*%
%TO.N,unconnected-(U1F-D14-PadCN5_9)*%
X49280000Y-49530000D03*
%TO.P,U1,CN5_10,D15*%
%TO.N,unconnected-(U1F-D15-PadCN5_10)*%
X46740000Y-49530000D03*
D20*
%TO.P,U1,CN6_1*%
%TO.N,N/C*%
X55880000Y-97790000D03*
D21*
%TO.P,U1,CN6_2,CN6_IOREF*%
%TO.N,unconnected-(U1C-CN6_IOREF-PadCN6_2)*%
X58420000Y-97790000D03*
%TO.P,U1,CN6_3,CN6_RESET*%
%TO.N,unconnected-(U1C-CN6_RESET-PadCN6_3)*%
X60960000Y-97790000D03*
%TO.P,U1,CN6_4,CN6_+3V3*%
%TO.N,+3.3V*%
X63500000Y-97790000D03*
%TO.P,U1,CN6_5,CN6_+5V*%
%TO.N,unconnected-(U1C-CN6_+5V-PadCN6_5)*%
X66040000Y-97790000D03*
%TO.P,U1,CN6_6,CN6_GND*%
%TO.N,GND*%
X68580000Y-97790000D03*
%TO.P,U1,CN6_7,CN6_GND*%
X71120000Y-97790000D03*
%TO.P,U1,CN6_8,CN6_VIN*%
%TO.N,unconnected-(U1C-CN6_VIN-PadCN6_8)*%
X73660000Y-97790000D03*
D22*
%TO.P,U1,CN7_1,PC10*%
%TO.N,unconnected-(U1A-PC10-PadCN7_1)*%
X45720000Y-105410000D03*
D23*
%TO.P,U1,CN7_2,PC11*%
%TO.N,unconnected-(U1A-PC11-PadCN7_2)*%
X45720000Y-102870000D03*
%TO.P,U1,CN7_3,PC12*%
%TO.N,unconnected-(U1A-PC12-PadCN7_3)*%
X48260000Y-105410000D03*
%TO.P,U1,CN7_4,PD2*%
%TO.N,unconnected-(U1A-PD2-PadCN7_4)*%
X48260000Y-102870000D03*
%TO.P,U1,CN7_5,VDD*%
%TO.N,unconnected-(U1A-VDD-PadCN7_5)*%
X50800000Y-105410000D03*
%TO.P,U1,CN7_6,E5V*%
%TO.N,Net-(U1A-E5V)*%
X50800000Y-102870000D03*
%TO.P,U1,CN7_7,BOOT0*%
%TO.N,unconnected-(U1A-BOOT0-PadCN7_7)*%
X53340000Y-105410000D03*
%TO.P,U1,CN7_8,CN7_GND*%
%TO.N,GND*%
X53340000Y-102870000D03*
%TO.P,U1,CN7_9*%
%TO.N,N/C*%
X55880000Y-105410000D03*
%TO.P,U1,CN7_10*%
X55880000Y-102870000D03*
%TO.P,U1,CN7_11*%
X58420000Y-105410000D03*
%TO.P,U1,CN7_12,CN7_IOREF*%
%TO.N,unconnected-(U1A-CN7_IOREF-PadCN7_12)*%
X58420000Y-102870000D03*
%TO.P,U1,CN7_13,PA13*%
%TO.N,unconnected-(U1A-PA13-PadCN7_13)*%
X60960000Y-105410000D03*
%TO.P,U1,CN7_14,CN7_RESET*%
%TO.N,unconnected-(U1A-CN7_RESET-PadCN7_14)*%
X60960000Y-102870000D03*
%TO.P,U1,CN7_15,PA14*%
%TO.N,unconnected-(U1A-PA14-PadCN7_15)*%
X63500000Y-105410000D03*
%TO.P,U1,CN7_16,CN7_+3V3*%
%TO.N,+3.3V*%
X63500000Y-102870000D03*
%TO.P,U1,CN7_17,PA15*%
%TO.N,unconnected-(U1A-PA15-PadCN7_17)*%
X66040000Y-105410000D03*
%TO.P,U1,CN7_18,CN7_+5V*%
%TO.N,unconnected-(U1A-CN7_+5V-PadCN7_18)*%
X66040000Y-102870000D03*
%TO.P,U1,CN7_19,CN7_GND*%
%TO.N,GND*%
X68580000Y-105410000D03*
%TO.P,U1,CN7_20,CN7_GND*%
X68580000Y-102870000D03*
%TO.P,U1,CN7_21,PB7*%
%TO.N,unconnected-(U1A-PB7-PadCN7_21)*%
X71120000Y-105410000D03*
%TO.P,U1,CN7_22,CN7_GND*%
%TO.N,GND*%
X71120000Y-102870000D03*
%TO.P,U1,CN7_23,PC13*%
%TO.N,unconnected-(U1A-PC13-PadCN7_23)*%
X73660000Y-105410000D03*
%TO.P,U1,CN7_24,CN7_VIN*%
%TO.N,unconnected-(U1A-CN7_VIN-PadCN7_24)*%
X73660000Y-102870000D03*
%TO.P,U1,CN7_25,PC14*%
%TO.N,unconnected-(U1A-PC14-PadCN7_25)*%
X76200000Y-105410000D03*
%TO.P,U1,CN7_26*%
%TO.N,N/C*%
X76200000Y-102870000D03*
%TO.P,U1,CN7_27,PC15*%
%TO.N,unconnected-(U1A-PC15-PadCN7_27)*%
X78740000Y-105410000D03*
%TO.P,U1,CN7_28,PA0*%
%TO.N,ADC3_IN0*%
X78740000Y-102870000D03*
%TO.P,U1,CN7_29,PH0*%
%TO.N,unconnected-(U1A-PH0-PadCN7_29)*%
X81280000Y-105410000D03*
%TO.P,U1,CN7_30,PA1*%
%TO.N,ADC3_IN1*%
X81280000Y-102870000D03*
%TO.P,U1,CN7_31,PH1*%
%TO.N,unconnected-(U1A-PH1-PadCN7_31)*%
X83820000Y-105410000D03*
%TO.P,U1,CN7_32,PA4*%
%TO.N,ADC1_IN4*%
X83820000Y-102870000D03*
%TO.P,U1,CN7_33,VBAT*%
%TO.N,unconnected-(U1A-VBAT-PadCN7_33)*%
X86360000Y-105410000D03*
%TO.P,U1,CN7_34,PB0*%
%TO.N,unconnected-(U1A-PB0-PadCN7_34)*%
X86360000Y-102870000D03*
%TO.P,U1,CN7_35,PC2*%
%TO.N,ADC2_IN12*%
X88900000Y-105410000D03*
%TO.P,U1,CN7_36,PC1/PB9*%
%TO.N,ADC1_IN11*%
X88900000Y-102870000D03*
%TO.P,U1,CN7_37,PC3*%
%TO.N,ADC2_IN13*%
X91440000Y-105410000D03*
%TO.P,U1,CN7_38,PC0/PB8*%
%TO.N,ADC1_IN10*%
X91440000Y-102870000D03*
D20*
%TO.P,U1,CN8_1,A0*%
%TO.N,unconnected-(U1E-A0-PadCN8_1)*%
X78740000Y-97790000D03*
D21*
%TO.P,U1,CN8_2,A1*%
%TO.N,unconnected-(U1E-A1-PadCN8_2)*%
X81280000Y-97790000D03*
%TO.P,U1,CN8_3,A2*%
%TO.N,unconnected-(U1E-A2-PadCN8_3)*%
X83820000Y-97790000D03*
%TO.P,U1,CN8_4,A3*%
%TO.N,unconnected-(U1E-A3-PadCN8_4)*%
X86360000Y-97790000D03*
%TO.P,U1,CN8_5,A4*%
%TO.N,unconnected-(U1E-A4-PadCN8_5)*%
X88900000Y-97790000D03*
%TO.P,U1,CN8_6,A5*%
%TO.N,unconnected-(U1E-A5-PadCN8_6)*%
X91440000Y-97790000D03*
D20*
%TO.P,U1,CN9_1,D0*%
%TO.N,unconnected-(U1D-D0-PadCN9_1)*%
X91440000Y-49530000D03*
D21*
%TO.P,U1,CN9_2,D1*%
%TO.N,unconnected-(U1D-D1-PadCN9_2)*%
X88900000Y-49530000D03*
%TO.P,U1,CN9_3,D2*%
%TO.N,unconnected-(U1D-D2-PadCN9_3)*%
X86360000Y-49530000D03*
%TO.P,U1,CN9_4,D3*%
%TO.N,unconnected-(U1D-D3-PadCN9_4)*%
X83820000Y-49530000D03*
%TO.P,U1,CN9_5,D4*%
%TO.N,unconnected-(U1D-D4-PadCN9_5)*%
X81280000Y-49530000D03*
%TO.P,U1,CN9_6,D5*%
%TO.N,unconnected-(U1D-D5-PadCN9_6)*%
X78740000Y-49530000D03*
%TO.P,U1,CN9_7,D6*%
%TO.N,unconnected-(U1D-D6-PadCN9_7)*%
X76200000Y-49530000D03*
%TO.P,U1,CN9_8,D7*%
%TO.N,unconnected-(U1D-D7-PadCN9_8)*%
X73660000Y-49530000D03*
D22*
%TO.P,U1,CN10_1,PC9*%
%TO.N,unconnected-(U1B-PC9-PadCN10_1)*%
X45720000Y-44450000D03*
D23*
%TO.P,U1,CN10_2,PC8*%
%TO.N,unconnected-(U1B-PC8-PadCN10_2)*%
X45720000Y-41910000D03*
%TO.P,U1,CN10_3,PB8*%
%TO.N,unconnected-(U1B-PB8-PadCN10_3)*%
X48260000Y-44450000D03*
%TO.P,U1,CN10_4,PC6*%
%TO.N,unconnected-(U1B-PC6-PadCN10_4)*%
X48260000Y-41910000D03*
%TO.P,U1,CN10_5,PB9*%
%TO.N,unconnected-(U1B-PB9-PadCN10_5)*%
X50800000Y-44450000D03*
%TO.P,U1,CN10_6,PC5*%
%TO.N,unconnected-(U1B-PC5-PadCN10_6)*%
X50800000Y-41910000D03*
%TO.P,U1,CN10_7,AVDD*%
%TO.N,unconnected-(U1B-AVDD-PadCN10_7)*%
X53340000Y-44450000D03*
%TO.P,U1,CN10_8,U5V*%
%TO.N,unconnected-(U1B-U5V-PadCN10_8)*%
X53340000Y-41910000D03*
%TO.P,U1,CN10_9,CN10_GND*%
%TO.N,GND*%
X55880000Y-44450000D03*
%TO.P,U1,CN10_10*%
%TO.N,N/C*%
X55880000Y-41910000D03*
%TO.P,U1,CN10_11,PA5*%
%TO.N,unconnected-(U1B-PA5-PadCN10_11)*%
X58420000Y-44450000D03*
%TO.P,U1,CN10_12,PA12*%
%TO.N,unconnected-(U1B-PA12-PadCN10_12)*%
X58420000Y-41910000D03*
%TO.P,U1,CN10_13,PA6*%
%TO.N,ADC2_IN6*%
X60960000Y-44450000D03*
%TO.P,U1,CN10_14,PA11*%
%TO.N,unconnected-(U1B-PA11-PadCN10_14)*%
X60960000Y-41910000D03*
%TO.P,U1,CN10_15,PA7*%
%TO.N,unconnected-(U1B-PA7-PadCN10_15)*%
X63500000Y-44450000D03*
%TO.P,U1,CN10_16,PB12*%
%TO.N,unconnected-(U1B-PB12-PadCN10_16)*%
X63500000Y-41910000D03*
%TO.P,U1,CN10_17,PB6*%
%TO.N,unconnected-(U1B-PB6-PadCN10_17)*%
X66040000Y-44450000D03*
%TO.P,U1,CN10_18*%
%TO.N,N/C*%
X66040000Y-41910000D03*
%TO.P,U1,CN10_19,PC7*%
%TO.N,unconnected-(U1B-PC7-PadCN10_19)*%
X68580000Y-44450000D03*
%TO.P,U1,CN10_20,CN10_GND*%
%TO.N,GND*%
X68580000Y-41910000D03*
%TO.P,U1,CN10_21,PA9*%
%TO.N,TIM_CH2*%
X71120000Y-44450000D03*
%TO.P,U1,CN10_22,PB2*%
%TO.N,unconnected-(U1B-PB2-PadCN10_22)*%
X71120000Y-41910000D03*
%TO.P,U1,CN10_23,PA8*%
%TO.N,TIM_CH1*%
X73660000Y-44450000D03*
%TO.P,U1,CN10_24,PB1*%
%TO.N,unconnected-(U1B-PB1-PadCN10_24)*%
X73660000Y-41910000D03*
%TO.P,U1,CN10_25,PB10*%
%TO.N,unconnected-(U1B-PB10-PadCN10_25)*%
X76200000Y-44450000D03*
%TO.P,U1,CN10_26,PB15*%
%TO.N,TIM_CH3N*%
X76200000Y-41910000D03*
%TO.P,U1,CN10_27,PB4*%
%TO.N,unconnected-(U1B-PB4-PadCN10_27)*%
X78740000Y-44450000D03*
%TO.P,U1,CN10_28,PB14*%
%TO.N,TIM_CH2N*%
X78740000Y-41910000D03*
%TO.P,U1,CN10_29,PB5*%
%TO.N,unconnected-(U1B-PB5-PadCN10_29)*%
X81280000Y-44450000D03*
%TO.P,U1,CN10_30,PB13*%
%TO.N,TIM_CH1N*%
X81280000Y-41910000D03*
%TO.P,U1,CN10_31,PB3*%
%TO.N,unconnected-(U1B-PB3-PadCN10_31)*%
X83820000Y-44450000D03*
%TO.P,U1,CN10_32,AGND*%
%TO.N,unconnected-(U1B-AGND-PadCN10_32)*%
X83820000Y-41910000D03*
%TO.P,U1,CN10_33,PA10*%
%TO.N,TIM_CH3*%
X86360000Y-44450000D03*
%TO.P,U1,CN10_34,PC4*%
%TO.N,unconnected-(U1B-PC4-PadCN10_34)*%
X86360000Y-41910000D03*
%TO.P,U1,CN10_35,PA2*%
%TO.N,unconnected-(U1B-PA2-PadCN10_35)*%
X88900000Y-44450000D03*
%TO.P,U1,CN10_36*%
%TO.N,N/C*%
X88900000Y-41910000D03*
%TO.P,U1,CN10_37,PA3*%
%TO.N,unconnected-(U1B-PA3-PadCN10_37)*%
X91440000Y-44450000D03*
%TO.P,U1,CN10_38*%
%TO.N,N/C*%
X91440000Y-41910000D03*
%TD*%
D10*
%TO.P,C30,1*%
%TO.N,ADC3_IN1*%
X69530528Y-121966945D03*
%TO.P,C30,2*%
%TO.N,GND*%
X64530528Y-121966945D03*
%TD*%
D16*
%TO.P,L15,1,1*%
%TO.N,Net-(C13-Pad1)*%
X117686665Y-86360000D03*
D17*
%TO.P,L15,2,2*%
%TO.N,Net-(L15-Pad2)*%
X117686665Y-71120000D03*
%TD*%
D11*
%TO.P,R6,1*%
%TO.N,Net-(D4-K)*%
X45643489Y-53947960D03*
D12*
%TO.P,R6,2*%
%TO.N,Net-(Q5-B)*%
X55803489Y-53947960D03*
%TD*%
D11*
%TO.P,R31,1*%
%TO.N,ADC2_IN13*%
X32730388Y-116927792D03*
D12*
%TO.P,R31,2*%
%TO.N,Net-(R31-Pad2)*%
X42890388Y-116927792D03*
%TD*%
D11*
%TO.P,R24,1*%
%TO.N,Net-(R23-Pad2)*%
X91932762Y-126311292D03*
D12*
%TO.P,R24,2*%
%TO.N,ADC2_IN12*%
X81772762Y-126311292D03*
%TD*%
D11*
%TO.P,R18,1*%
%TO.N,Net-(U4--)*%
X129287238Y-74405629D03*
D12*
%TO.P,R18,2*%
%TO.N,Phase3*%
X139447238Y-74405629D03*
%TD*%
D11*
%TO.P,R26,1*%
%TO.N,Phase3*%
X136681888Y-116739651D03*
D12*
%TO.P,R26,2*%
%TO.N,Net-(U5D--)*%
X136681888Y-126899651D03*
%TD*%
D10*
%TO.P,C13,1*%
%TO.N,Net-(C13-Pad1)*%
X102446667Y-71040000D03*
%TO.P,C13,2*%
%TO.N,GND1*%
X102446667Y-76040000D03*
%TD*%
D13*
%TO.P,D3,1,K*%
%TO.N,Net-(D1-A)*%
X71966667Y-26777323D03*
D12*
%TO.P,D3,2,A*%
%TO.N,GND*%
X71966667Y-34397323D03*
%TD*%
D16*
%TO.P,L11,1,1*%
%TO.N,Net-(L10-Pad2)*%
X124460000Y-60960000D03*
D17*
%TO.P,L11,2,2*%
%TO.N,Net-(U3--)*%
X124460000Y-45720000D03*
%TD*%
D11*
%TO.P,R36,1*%
%TO.N,ADC2_IN6*%
X39263895Y-46456938D03*
D12*
%TO.P,R36,2*%
%TO.N,+5V*%
X29103895Y-46456938D03*
%TD*%
D10*
%TO.P,C19,1*%
%TO.N,ADC1_IN4*%
X126223022Y-32251284D03*
%TO.P,C19,2*%
%TO.N,GND*%
X131223022Y-32251284D03*
%TD*%
D16*
%TO.P,L9,1,1*%
%TO.N,Net-(L8-Pad2)*%
X71120000Y-68580000D03*
D17*
%TO.P,L9,2,2*%
%TO.N,Net-(C10-Pad1)*%
X86360000Y-68580000D03*
%TD*%
D11*
%TO.P,R7,1*%
%TO.N,TIM_CH3*%
X36350390Y-80986962D03*
D12*
%TO.P,R7,2*%
%TO.N,Net-(Q7-B)*%
X46510390Y-80986962D03*
%TD*%
D10*
%TO.P,C23,1*%
%TO.N,+5V*%
X102884990Y-110277675D03*
%TO.P,C23,2*%
%TO.N,GND*%
X102884990Y-115277675D03*
%TD*%
D14*
%TO.P,Q2,1,C*%
%TO.N,Net-(D1-A)*%
X67894116Y-21328393D03*
D15*
%TO.P,Q2,2,B*%
%TO.N,Net-(Q2-B)*%
X67894116Y-20058393D03*
%TO.P,Q2,3,E*%
%TO.N,+5V*%
X67894116Y-18788393D03*
%TD*%
D10*
%TO.P,C3,1*%
%TO.N,Net-(C1-Pad1)*%
X99906666Y-27914127D03*
%TO.P,C3,2*%
%TO.N,GND1*%
X99906666Y-32914127D03*
%TD*%
%TO.P,C28,1*%
%TO.N,ADC1_IN11*%
X22780000Y-112103866D03*
%TO.P,C28,2*%
%TO.N,GND*%
X17780000Y-112103866D03*
%TD*%
D11*
%TO.P,R29,1*%
%TO.N,Net-(R28-Pad2)*%
X74228929Y-117082212D03*
D12*
%TO.P,R29,2*%
%TO.N,ADC3_IN0*%
X64068929Y-117082212D03*
%TD*%
D16*
%TO.P,L12,1,1*%
%TO.N,Net-(D8-A)*%
X71120000Y-78740000D03*
D17*
%TO.P,L12,2,2*%
%TO.N,Net-(L12-Pad2)*%
X86360000Y-78740000D03*
%TD*%
D16*
%TO.P,L14,1,1*%
%TO.N,Net-(L13-Pad2)*%
X71053576Y-90563547D03*
D17*
%TO.P,L14,2,2*%
%TO.N,Net-(C13-Pad1)*%
X86293576Y-90563547D03*
%TD*%
D10*
%TO.P,C22,1*%
%TO.N,+5V*%
X130078061Y-81930594D03*
%TO.P,C22,2*%
%TO.N,GND*%
X135078061Y-81930594D03*
%TD*%
%TO.P,C20,1*%
%TO.N,+5V*%
X129840775Y-57266421D03*
%TO.P,C20,2*%
%TO.N,GND*%
X134840775Y-57266421D03*
%TD*%
D14*
%TO.P,Q9,1,C*%
%TO.N,Net-(D8-A)*%
X60427815Y-88606962D03*
D15*
%TO.P,Q9,2,B*%
%TO.N,Net-(Q9-B)*%
X60427815Y-89876962D03*
%TO.P,Q9,3,E*%
%TO.N,GND*%
X60427815Y-91146962D03*
%TD*%
D13*
%TO.P,D4,1,K*%
%TO.N,Net-(D4-K)*%
X55566016Y-56982470D03*
D12*
%TO.P,D4,2,A*%
%TO.N,GND*%
X55566016Y-64602470D03*
%TD*%
D10*
%TO.P,C6,1*%
%TO.N,+5V*%
X35939341Y-14742570D03*
%TO.P,C6,2*%
%TO.N,GND*%
X35939341Y-19742570D03*
%TD*%
D11*
%TO.P,R17,1*%
%TO.N,Net-(U5B--)*%
X107286967Y-96031382D03*
D12*
%TO.P,R17,2*%
%TO.N,Net-(R17-Pad2)*%
X107286967Y-106191382D03*
%TD*%
D10*
%TO.P,C4,1*%
%TO.N,Net-(C1-Pad1)*%
X106679999Y-27914127D03*
%TO.P,C4,2*%
%TO.N,GND1*%
X106679999Y-32914127D03*
%TD*%
D13*
%TO.P,C8,1*%
%TO.N,+5V*%
X27339244Y-15210639D03*
D11*
%TO.P,C8,2*%
%TO.N,GND*%
X27339244Y-17710639D03*
%TD*%
%TO.P,R27,1*%
%TO.N,ADC1_IN4*%
X122956641Y-123783096D03*
D12*
%TO.P,R27,2*%
%TO.N,Net-(U5D-+)*%
X112796641Y-123783096D03*
%TD*%
D10*
%TO.P,C5,1*%
%TO.N,+5V*%
X35829030Y-23685503D03*
%TO.P,C5,2*%
%TO.N,GND*%
X35829030Y-28685503D03*
%TD*%
D16*
%TO.P,L8,1,1*%
%TO.N,Net-(L7-Pad2)*%
X71120000Y-62535377D03*
D17*
%TO.P,L8,2,2*%
%TO.N,Net-(L8-Pad2)*%
X86360000Y-62535377D03*
%TD*%
D10*
%TO.P,C16,1*%
%TO.N,Net-(C13-Pad1)*%
X109220000Y-81180000D03*
%TO.P,C16,2*%
%TO.N,GND1*%
X109220000Y-86180000D03*
%TD*%
%TO.P,C14,1*%
%TO.N,Net-(C13-Pad1)*%
X109220000Y-71040000D03*
%TO.P,C14,2*%
%TO.N,GND1*%
X109220000Y-76040000D03*
%TD*%
%TO.P,C27,1*%
%TO.N,ADC3_IN0*%
X69503792Y-112555624D03*
%TO.P,C27,2*%
%TO.N,GND*%
X64503792Y-112555624D03*
%TD*%
%TO.P,C9,1*%
%TO.N,Net-(C10-Pad1)*%
X102446667Y-45720000D03*
%TO.P,C9,2*%
%TO.N,GND1*%
X102446667Y-50720000D03*
%TD*%
D16*
%TO.P,L1,1,1*%
%TO.N,Net-(L1-Pad1)*%
X86360000Y-33020000D03*
D17*
%TO.P,L1,2,2*%
%TO.N,Net-(L1-Pad2)*%
X86360000Y-17780000D03*
%TD*%
D13*
%TO.P,D8,1,K*%
%TO.N,+5V*%
X65240351Y-74929895D03*
D12*
%TO.P,D8,2,A*%
%TO.N,Net-(D8-A)*%
X65240351Y-82549895D03*
%TD*%
D10*
%TO.P,C10,1*%
%TO.N,Net-(C10-Pad1)*%
X109220000Y-45720000D03*
%TO.P,C10,2*%
%TO.N,GND1*%
X109220000Y-50720000D03*
%TD*%
D13*
%TO.P,D5,1,K*%
%TO.N,+5V*%
X65272386Y-53194390D03*
D12*
%TO.P,D5,2,A*%
%TO.N,Net-(D5-A)*%
X65272386Y-60814390D03*
%TD*%
D10*
%TO.P,C26,1*%
%TO.N,ADC2_IN12*%
X87225483Y-121815448D03*
%TO.P,C26,2*%
%TO.N,GND*%
X82225483Y-121815448D03*
%TD*%
D11*
%TO.P,R38,1*%
%TO.N,Net-(U2--)*%
X125402877Y-17977129D03*
D12*
%TO.P,R38,2*%
%TO.N,Phase1*%
X135562877Y-17977129D03*
%TD*%
D11*
%TO.P,R4,1*%
%TO.N,TIM_CH2*%
X36402410Y-58252470D03*
D12*
%TO.P,R4,2*%
%TO.N,Net-(Q1-B)*%
X46562410Y-58252470D03*
%TD*%
D11*
%TO.P,R3,1*%
%TO.N,TIM_CH1N*%
X52379688Y-30289442D03*
D12*
%TO.P,R3,2*%
%TO.N,Net-(Q4-B)*%
X62539688Y-30289442D03*
%TD*%
D14*
%TO.P,Q5,1,C*%
%TO.N,Net-(D5-A)*%
X61199835Y-58514732D03*
D15*
%TO.P,Q5,2,B*%
%TO.N,Net-(Q5-B)*%
X61199835Y-57244732D03*
%TO.P,Q5,3,E*%
%TO.N,+5V*%
X61199835Y-55974732D03*
%TD*%
D11*
%TO.P,R8,1*%
%TO.N,TIM_CH3N*%
X45633387Y-88606962D03*
D12*
%TO.P,R8,2*%
%TO.N,Net-(Q9-B)*%
X55793387Y-88606962D03*
%TD*%
D11*
%TO.P,R15,1*%
%TO.N,Net-(U3--)*%
X128834806Y-49767842D03*
D12*
%TO.P,R15,2*%
%TO.N,Phase2*%
X138994806Y-49767842D03*
%TD*%
D10*
%TO.P,C29,1*%
%TO.N,ADC2_IN13*%
X38157677Y-112201796D03*
%TO.P,C29,2*%
%TO.N,GND*%
X33157677Y-112201796D03*
%TD*%
D13*
%TO.P,D1,1,K*%
%TO.N,+5V*%
X71966667Y-15830566D03*
D12*
%TO.P,D1,2,A*%
%TO.N,Net-(D1-A)*%
X71966667Y-23450566D03*
%TD*%
D11*
%TO.P,R16,1*%
%TO.N,ADC1_IN4*%
X120278364Y-105719119D03*
D12*
%TO.P,R16,2*%
%TO.N,Net-(U5B-+)*%
X110118364Y-105719119D03*
%TD*%
D11*
%TO.P,R9,1*%
%TO.N,Net-(D7-K)*%
X45591469Y-74825039D03*
D12*
%TO.P,R9,2*%
%TO.N,Net-(Q8-B)*%
X55751469Y-74825039D03*
%TD*%
D13*
%TO.P,D7,1,K*%
%TO.N,Net-(D7-K)*%
X55375315Y-78048918D03*
D12*
%TO.P,D7,2,A*%
%TO.N,GND*%
X55375315Y-85668918D03*
%TD*%
D16*
%TO.P,L13,1,1*%
%TO.N,Net-(L12-Pad2)*%
X71120000Y-84718198D03*
D17*
%TO.P,L13,2,2*%
%TO.N,Net-(L13-Pad2)*%
X86360000Y-84718198D03*
%TD*%
D13*
%TO.P,C33,1*%
%TO.N,+5V*%
X20563953Y-31261220D03*
D11*
%TO.P,C33,2*%
%TO.N,GND*%
X15563953Y-31261220D03*
%TD*%
D10*
%TO.P,C1,1*%
%TO.N,Net-(C1-Pad1)*%
X99906666Y-17774127D03*
%TO.P,C1,2*%
%TO.N,GND1*%
X99906666Y-22774127D03*
%TD*%
D14*
%TO.P,Q1,1,C*%
%TO.N,Net-(D4-K)*%
X50500851Y-58252470D03*
D15*
%TO.P,Q1,2,B*%
%TO.N,Net-(Q1-B)*%
X50500851Y-59522470D03*
%TO.P,Q1,3,E*%
%TO.N,GND*%
X50500851Y-60792470D03*
%TD*%
D13*
%TO.P,D9,1,K*%
%TO.N,Net-(D8-A)*%
X65243743Y-85450239D03*
D12*
%TO.P,D9,2,A*%
%TO.N,GND*%
X65243743Y-93070239D03*
%TD*%
D10*
%TO.P,C17,1*%
%TO.N,+5V*%
X126199089Y-28871610D03*
%TO.P,C17,2*%
%TO.N,GND*%
X131199089Y-28871610D03*
%TD*%
D11*
%TO.P,R30,1*%
%TO.N,ADC1_IN11*%
X17294668Y-116715617D03*
D12*
%TO.P,R30,2*%
%TO.N,Net-(R30-Pad2)*%
X27454668Y-116715617D03*
%TD*%
D14*
%TO.P,Q6,1,C*%
%TO.N,Net-(D5-A)*%
X60479835Y-66439277D03*
D15*
%TO.P,Q6,2,B*%
%TO.N,Net-(Q6-B)*%
X60479835Y-67709277D03*
%TO.P,Q6,3,E*%
%TO.N,GND*%
X60479835Y-68979277D03*
%TD*%
D16*
%TO.P,L2,1,1*%
%TO.N,Net-(L1-Pad2)*%
X93133333Y-32964127D03*
D17*
%TO.P,L2,2,2*%
%TO.N,Net-(C1-Pad1)*%
X93133333Y-17724127D03*
%TD*%
D11*
%TO.P,R2,1*%
%TO.N,TIM_CH1*%
X43176082Y-22177431D03*
D12*
%TO.P,R2,2*%
%TO.N,Net-(Q3-B)*%
X53336082Y-22177431D03*
%TD*%
D10*
%TO.P,C11,1*%
%TO.N,Net-(C10-Pad1)*%
X102446667Y-55860000D03*
%TO.P,C11,2*%
%TO.N,GND1*%
X102446667Y-60860000D03*
%TD*%
%TO.P,C15,1*%
%TO.N,Net-(C13-Pad1)*%
X102446667Y-81180000D03*
%TO.P,C15,2*%
%TO.N,GND1*%
X102446667Y-86180000D03*
%TD*%
%TO.P,C31,1*%
%TO.N,Net-(U1A-E5V)*%
X55999631Y-111028765D03*
%TO.P,C31,2*%
%TO.N,GND*%
X55999631Y-116028765D03*
%TD*%
D11*
%TO.P,R20,1*%
%TO.N,Phase1*%
X134652999Y-94895396D03*
D12*
%TO.P,R20,2*%
%TO.N,Net-(U5C-+)*%
X124492999Y-94895396D03*
%TD*%
D10*
%TO.P,C18,1*%
%TO.N,Net-(U5A-+)*%
X117629435Y-102268518D03*
%TO.P,C18,2*%
%TO.N,GND*%
X117629435Y-97268518D03*
%TD*%
D13*
%TO.P,U5,1*%
%TO.N,ADC1_IN4*%
X122796621Y-109220000D03*
D12*
%TO.P,U5,2,-*%
X120256621Y-109220000D03*
%TO.P,U5,3,+*%
%TO.N,Net-(U5A-+)*%
X117716621Y-109220000D03*
%TO.P,U5,4,V+*%
%TO.N,+5V*%
X115176621Y-109220000D03*
%TO.P,U5,5,+*%
%TO.N,Net-(U5B-+)*%
X112636621Y-109220000D03*
%TO.P,U5,6,-*%
%TO.N,Net-(U5B--)*%
X110096621Y-109220000D03*
%TO.P,U5,7*%
%TO.N,Net-(R17-Pad2)*%
X107556621Y-109220000D03*
%TO.P,U5,8*%
%TO.N,Net-(R23-Pad2)*%
X107556621Y-116840000D03*
%TO.P,U5,9,-*%
%TO.N,Net-(U5C--)*%
X110096621Y-116840000D03*
%TO.P,U5,10,+*%
%TO.N,Net-(U5C-+)*%
X112636621Y-116840000D03*
%TO.P,U5,11,V-*%
%TO.N,GND*%
X115176621Y-116840000D03*
%TO.P,U5,12,+*%
%TO.N,Net-(U5D-+)*%
X117716621Y-116840000D03*
%TO.P,U5,13,-*%
%TO.N,Net-(U5D--)*%
X120256621Y-116840000D03*
%TO.P,U5,14*%
%TO.N,Net-(R28-Pad2)*%
X122796621Y-116840000D03*
%TD*%
D18*
%TO.P,J2,1,Pin_1*%
%TO.N,Phase3*%
X147320000Y-30480000D03*
D19*
%TO.P,J2,2,Pin_2*%
%TO.N,Phase2*%
X147320000Y-25400000D03*
%TO.P,J2,3,Pin_3*%
%TO.N,Phase1*%
X147320000Y-20320000D03*
%TD*%
D11*
%TO.P,R23,1*%
%TO.N,Net-(U5C--)*%
X110017191Y-120101531D03*
D12*
%TO.P,R23,2*%
%TO.N,Net-(R23-Pad2)*%
X99857191Y-120101531D03*
%TD*%
D16*
%TO.P,L4,1,1*%
%TO.N,Net-(L3-Pad2)*%
X120226667Y-33127323D03*
D17*
%TO.P,L4,2,2*%
%TO.N,Net-(U2--)*%
X120226667Y-17887323D03*
%TD*%
D10*
%TO.P,C2,1*%
%TO.N,Net-(C1-Pad1)*%
X106679999Y-17774127D03*
%TO.P,C2,2*%
%TO.N,GND1*%
X106679999Y-22774127D03*
%TD*%
D11*
%TO.P,R12,1*%
%TO.N,Phase2*%
X138203982Y-98332267D03*
D12*
%TO.P,R12,2*%
%TO.N,Net-(U5B--)*%
X128043982Y-98332267D03*
%TD*%
D13*
%TO.P,D6,1,K*%
%TO.N,Net-(D5-A)*%
X65272386Y-63899492D03*
D12*
%TO.P,D6,2,A*%
%TO.N,GND*%
X65272386Y-71519492D03*
%TD*%
D16*
%TO.P,L10,1,1*%
%TO.N,Net-(C10-Pad1)*%
X117686665Y-60960000D03*
D17*
%TO.P,L10,2,2*%
%TO.N,Net-(L10-Pad2)*%
X117686665Y-45720000D03*
%TD*%
D11*
%TO.P,R19,1*%
%TO.N,Net-(R17-Pad2)*%
X91906915Y-117204549D03*
D12*
%TO.P,R19,2*%
%TO.N,ADC1_IN10*%
X81746915Y-117204549D03*
%TD*%
D14*
%TO.P,Q4,1,C*%
%TO.N,Net-(D1-A)*%
X67174116Y-29015621D03*
D15*
%TO.P,Q4,2,B*%
%TO.N,Net-(Q4-B)*%
X67174116Y-30285621D03*
%TO.P,Q4,3,E*%
%TO.N,GND*%
X67174116Y-31555621D03*
%TD*%
D11*
%TO.P,R13,1*%
%TO.N,Net-(U5A-+)*%
X110880422Y-102655886D03*
D12*
%TO.P,R13,2*%
%TO.N,+3.3V*%
X110880422Y-92495886D03*
%TD*%
D14*
%TO.P,Q7,1,C*%
%TO.N,Net-(D7-K)*%
X50560678Y-79703833D03*
D15*
%TO.P,Q7,2,B*%
%TO.N,Net-(Q7-B)*%
X50560678Y-80973833D03*
%TO.P,Q7,3,E*%
%TO.N,GND*%
X50560678Y-82243833D03*
%TD*%
D24*
%TO.N,+5V*%
X99060000Y-99060000D03*
%TO.N,Phase3*%
X147320000Y-71120000D03*
%TO.N,Net-(R30-Pad2)*%
X134597508Y-29782754D03*
%TO.N,Net-(R31-Pad2)*%
X132080000Y-66040000D03*
%TO.N,Net-(R32-Pad2)*%
X133003065Y-81516163D03*
%TO.N,TIM_CH3N*%
X68602470Y-66040000D03*
%TO.N,ADC1_IN4*%
X121920000Y-38100000D03*
%TO.N,ADC2_IN12*%
X87293308Y-117224622D03*
%TD*%
D25*
%TO.N,Net-(C1-Pad1)*%
X106679999Y-27914127D02*
X108240136Y-27914127D01*
X99856666Y-17724127D02*
X99906666Y-17774127D01*
X106679999Y-27914127D02*
X99906667Y-27914127D01*
X99496270Y-27503730D02*
X93133333Y-21140794D01*
X106679999Y-17774127D02*
X99906666Y-17774127D01*
X99906667Y-27914127D02*
X99496270Y-27503730D01*
X99906666Y-27914127D02*
X99496270Y-27503730D01*
X93133333Y-17724127D02*
X99856666Y-17724127D01*
X108240136Y-27914127D02*
X113453332Y-33127323D01*
X93133333Y-21140794D02*
X93133333Y-17724127D01*
%TO.N,GND1*%
X111760000Y-37994128D02*
X111760000Y-48180000D01*
X106679999Y-32914127D02*
X111760000Y-37994128D01*
X111760000Y-48180000D02*
X109220000Y-50720000D01*
D26*
%TO.N,+5V*%
X29103895Y-46456938D02*
X34585088Y-51938131D01*
X28153158Y-23685503D02*
X27339244Y-22871589D01*
D25*
X67752970Y-55674974D02*
X67752970Y-72417276D01*
X62492044Y-55974732D02*
X65272386Y-53194390D01*
X99060000Y-106452685D02*
X99060000Y-99060000D01*
D26*
X22889361Y-15210639D02*
X27339244Y-15210639D01*
X129840775Y-57266421D02*
X127000000Y-54425646D01*
X127000000Y-54425646D02*
X127000000Y-78852533D01*
X128654058Y-31326579D02*
X126199089Y-28871610D01*
D25*
X63848293Y-14742570D02*
X63500000Y-14742570D01*
X67894116Y-18788393D02*
X63848293Y-14742570D01*
X61147815Y-75906962D02*
X64263284Y-75906962D01*
X104367315Y-111760000D02*
X112636621Y-111760000D01*
D26*
X34585088Y-51938131D02*
X64016127Y-51938131D01*
X35471272Y-15210639D02*
X35939341Y-14742570D01*
X20320000Y-20320000D02*
X17780000Y-17780000D01*
D25*
X64263284Y-75906962D02*
X65240351Y-74929895D01*
X102884990Y-110277675D02*
X104367315Y-111760000D01*
D26*
X70878671Y-14742570D02*
X71966667Y-15830566D01*
X72904209Y-14893024D02*
X71966667Y-15830566D01*
X20320000Y-17780000D02*
X22889361Y-15210639D01*
X63500000Y-14742570D02*
X70878671Y-14742570D01*
X64016127Y-51938131D02*
X65272386Y-53194390D01*
D25*
X102884990Y-110277675D02*
X99060000Y-106452685D01*
D26*
X126199089Y-28871610D02*
X126199089Y-27871610D01*
X22871589Y-22871589D02*
X20320000Y-20320000D01*
D25*
X65272386Y-53194390D02*
X67752970Y-55674974D01*
D26*
X20563953Y-37916996D02*
X29103895Y-46456938D01*
D25*
X61199835Y-55974732D02*
X62492044Y-55974732D01*
D26*
X17780000Y-17780000D02*
X20320000Y-17780000D01*
X20563953Y-31261220D02*
X20563953Y-37916996D01*
X127000000Y-43180000D02*
X128654058Y-41525942D01*
X35939341Y-14742570D02*
X63500000Y-14742570D01*
X127000000Y-78852533D02*
X130078061Y-81930594D01*
X126199089Y-27871610D02*
X113220503Y-14893024D01*
X127000000Y-54425646D02*
X127000000Y-43180000D01*
X35829030Y-23685503D02*
X28153158Y-23685503D01*
X20563953Y-20563953D02*
X20320000Y-20320000D01*
X20563953Y-31261220D02*
X20563953Y-20563953D01*
X113220503Y-14893024D02*
X72904209Y-14893024D01*
D25*
X112636621Y-111760000D02*
X115176621Y-109220000D01*
D26*
X27339244Y-15210639D02*
X35471272Y-15210639D01*
X27339244Y-22871589D02*
X22871589Y-22871589D01*
X128654058Y-41525942D02*
X128654058Y-31326579D01*
D25*
X67752970Y-72417276D02*
X65240351Y-74929895D01*
%TO.N,GND*%
X71120000Y-102870000D02*
X68580000Y-102870000D01*
D26*
X36036489Y-93070239D02*
X65243743Y-93070239D01*
D27*
X54593832Y-106273049D02*
X60876407Y-112555624D01*
D25*
X127945067Y-93113588D02*
X135078061Y-85980594D01*
D26*
X33713125Y-90746875D02*
X36036489Y-93070239D01*
D25*
X58420000Y-88713603D02*
X55375315Y-85668918D01*
X51756016Y-60792470D02*
X55566016Y-64602470D01*
X58420000Y-89885472D02*
X58420000Y-88713603D01*
D26*
X33157677Y-112201796D02*
X33157677Y-91302323D01*
D25*
X50500851Y-60792470D02*
X51756016Y-60792470D01*
X65243743Y-93070239D02*
X62351092Y-93070239D01*
D26*
X61937811Y-121966945D02*
X58885433Y-118914567D01*
X49442379Y-116028765D02*
X48260000Y-114846386D01*
D25*
X121784365Y-93113588D02*
X127945067Y-93113588D01*
D26*
X55999631Y-116028765D02*
X49442379Y-116028765D01*
D25*
X68580000Y-108479416D02*
X68580000Y-105410000D01*
X84285514Y-119755417D02*
X82225483Y-121815448D01*
X97800667Y-119755417D02*
X84285514Y-119755417D01*
X68580000Y-105410000D02*
X68580000Y-102870000D01*
X63020050Y-71519492D02*
X60479835Y-68979277D01*
X60427815Y-91146962D02*
X59681490Y-91146962D01*
X100051652Y-118111013D02*
X99445071Y-118111013D01*
X68580000Y-97790000D02*
X71120000Y-97790000D01*
X65272386Y-71519492D02*
X63020050Y-71519492D01*
D26*
X33157677Y-91302323D02*
X33713125Y-90746875D01*
D25*
X112636621Y-114300000D02*
X115176621Y-116840000D01*
X114300000Y-93939083D02*
X117629435Y-97268518D01*
D26*
X17780000Y-74813750D02*
X17203125Y-74236875D01*
D25*
X102884990Y-115277675D02*
X100051652Y-118111013D01*
X55375315Y-85668918D02*
X53985763Y-85668918D01*
D26*
X15563953Y-38100000D02*
X15563953Y-39909967D01*
X15563953Y-72597703D02*
X17203125Y-74236875D01*
D25*
X114300000Y-92611804D02*
X114300000Y-93939083D01*
X66619067Y-31555621D02*
X62339688Y-27276242D01*
X103862665Y-114300000D02*
X112636621Y-114300000D01*
X53985763Y-85668918D02*
X50560678Y-82243833D01*
D27*
X54593832Y-104123832D02*
X54593832Y-106273049D01*
D26*
X58885433Y-118914567D02*
X55999631Y-116028765D01*
D27*
X53340000Y-102870000D02*
X54593832Y-104123832D01*
D25*
X70015818Y-34397323D02*
X67174116Y-31555621D01*
X59942823Y-68979277D02*
X55566016Y-64602470D01*
D27*
X60876407Y-112555624D02*
X64503792Y-112555624D01*
D26*
X61030651Y-116028765D02*
X64503792Y-112555624D01*
X15563953Y-39909967D02*
X47173478Y-71519492D01*
X64530528Y-121966945D02*
X61937811Y-121966945D01*
X55999631Y-116028765D02*
X61030651Y-116028765D01*
X17203125Y-74236875D02*
X33713125Y-90746875D01*
X15563953Y-31261220D02*
X15563953Y-38100000D01*
D25*
X60479835Y-68979277D02*
X59942823Y-68979277D01*
D26*
X47173478Y-71519492D02*
X65272386Y-71519492D01*
D25*
X71966667Y-34397323D02*
X70015818Y-34397323D01*
X58529688Y-23466242D02*
X62339688Y-27276242D01*
X117629435Y-97268518D02*
X121784365Y-93113588D01*
X62351092Y-93070239D02*
X60427815Y-91146962D01*
X102884990Y-115277675D02*
X103862665Y-114300000D01*
X57274523Y-23466242D02*
X58529688Y-23466242D01*
X59681490Y-91146962D02*
X58420000Y-89885472D01*
X99445071Y-118111013D02*
X97800667Y-119755417D01*
X71120000Y-102870000D02*
X71120000Y-97790000D01*
D26*
X15563953Y-38100000D02*
X15563953Y-72597703D01*
D25*
X67174116Y-31555621D02*
X66619067Y-31555621D01*
X64503792Y-112555624D02*
X68580000Y-108479416D01*
D26*
X17780000Y-112103866D02*
X17780000Y-74813750D01*
D25*
%TO.N,Net-(D1-A)*%
X71966667Y-26777323D02*
X69056793Y-26777323D01*
X71966667Y-26777323D02*
X73236667Y-26777323D01*
X69056793Y-26777323D02*
X67894116Y-27940000D01*
X73236667Y-26777323D02*
X79586667Y-33127323D01*
X67174116Y-29015621D02*
X67894116Y-28295621D01*
X67894116Y-27940000D02*
X67894116Y-21328393D01*
X71966667Y-23450566D02*
X71966667Y-26777323D01*
X67894116Y-28295621D02*
X67894116Y-27940000D01*
X70016289Y-23450566D02*
X67894116Y-21328393D01*
X71966667Y-23450566D02*
X70016289Y-23450566D01*
%TO.N,Net-(D2-K)*%
X62339688Y-19656242D02*
X58544523Y-19656242D01*
X56604107Y-20926242D02*
X57274523Y-20926242D01*
X52379688Y-16701823D02*
X56604107Y-20926242D01*
X58544523Y-19656242D02*
X57274523Y-20926242D01*
%TO.N,Net-(L1-Pad1)*%
X86360000Y-24660656D02*
X86360000Y-33020000D01*
X79586667Y-17887323D02*
X86360000Y-24660656D01*
%TO.N,Net-(L1-Pad2)*%
X86360000Y-17780000D02*
X93133333Y-24553333D01*
X93133333Y-24553333D02*
X93133333Y-32964127D01*
%TO.N,Net-(L3-Pad2)*%
X113453332Y-17887323D02*
X120226667Y-24660658D01*
X120226667Y-24660658D02*
X120226667Y-33127323D01*
%TO.N,Net-(Q2-B)*%
X65896258Y-20058393D02*
X67894116Y-20058393D01*
X62539688Y-16701823D02*
X65896258Y-20058393D01*
%TO.N,Net-(Q3-B)*%
X57255712Y-22177431D02*
X57274523Y-22196242D01*
X53336082Y-22177431D02*
X57255712Y-22177431D01*
%TO.N,Net-(Q4-B)*%
X67170295Y-30289442D02*
X67174116Y-30285621D01*
%TO.N,ADC1_IN10*%
X93980000Y-109220000D02*
X93980000Y-105410000D01*
X90620704Y-112579296D02*
X93980000Y-109220000D01*
X87187777Y-112579296D02*
X90620704Y-112579296D01*
X93980000Y-105410000D02*
X91440000Y-102870000D01*
D27*
%TO.N,Net-(U1A-E5V)*%
X50800000Y-102870000D02*
X49513510Y-104156490D01*
X49513510Y-104156490D02*
X49513510Y-106680000D01*
X49513510Y-111092876D02*
X48260000Y-112346386D01*
X55999631Y-111028765D02*
X53862275Y-111028765D01*
X53862275Y-111028765D02*
X49513510Y-106680000D01*
X49513510Y-106680000D02*
X49513510Y-111092876D01*
D25*
%TO.N,Net-(C10-Pad1)*%
X109220000Y-55860000D02*
X102446667Y-55860000D01*
X109220000Y-55860000D02*
X112586665Y-55860000D01*
X86360000Y-68580000D02*
X99080000Y-55860000D01*
X103896667Y-50536667D02*
X109220000Y-55860000D01*
X102446667Y-45720000D02*
X103896667Y-47170000D01*
X102446667Y-45720000D02*
X109220000Y-45720000D01*
X99080000Y-55860000D02*
X102446667Y-55860000D01*
X112586665Y-55860000D02*
X117686665Y-60960000D01*
X103896667Y-47170000D02*
X103896667Y-50536667D01*
%TO.N,Net-(C13-Pad1)*%
X109220000Y-71040000D02*
X102446667Y-71040000D01*
X107770000Y-76363333D02*
X102446667Y-71040000D01*
X109220000Y-81180000D02*
X112506665Y-81180000D01*
X93063120Y-90563547D02*
X102446667Y-81180000D01*
X107770000Y-79730000D02*
X107770000Y-76363333D01*
X109220000Y-81180000D02*
X107770000Y-79730000D01*
X102446667Y-81180000D02*
X109220000Y-81180000D01*
X112506665Y-81180000D02*
X117686665Y-86360000D01*
X86293576Y-90563547D02*
X93063120Y-90563547D01*
%TO.N,Net-(D4-K)*%
X50500851Y-58252470D02*
X46196341Y-53947960D01*
X46196341Y-53947960D02*
X45643489Y-53947960D01*
X51770851Y-56982470D02*
X50500851Y-58252470D01*
X55566016Y-56982470D02*
X51770851Y-56982470D01*
%TO.N,Net-(D5-A)*%
X60479835Y-59234732D02*
X60479835Y-66439277D01*
X62972728Y-58514732D02*
X65272386Y-60814390D01*
X61199835Y-58514732D02*
X62972728Y-58514732D01*
X62732601Y-66439277D02*
X65272386Y-63899492D01*
X60479835Y-66439277D02*
X62732601Y-66439277D01*
X61199835Y-58514732D02*
X60479835Y-59234732D01*
%TO.N,Net-(D7-K)*%
X50560678Y-79703833D02*
X45681884Y-74825039D01*
X55375315Y-78048918D02*
X52215593Y-78048918D01*
X45681884Y-74825039D02*
X45591469Y-74825039D01*
X52215593Y-78048918D02*
X50560678Y-79703833D01*
%TO.N,Net-(D8-A)*%
X65240351Y-82549895D02*
X67310105Y-82549895D01*
X65240351Y-82539498D02*
X65240351Y-82549895D01*
X61147815Y-78446962D02*
X60427815Y-79166962D01*
X65243743Y-85450239D02*
X63584538Y-85450239D01*
X67310105Y-82549895D02*
X71120000Y-78740000D01*
X61147815Y-78446962D02*
X65240351Y-82539498D01*
X63584538Y-85450239D02*
X60427815Y-88606962D01*
X60427815Y-79166962D02*
X60427815Y-88606962D01*
%TO.N,Net-(L7-Pad2)*%
X86445233Y-56291482D02*
X77363895Y-56291482D01*
X77363895Y-56291482D02*
X71120000Y-62535377D01*
%TO.N,Net-(L8-Pad2)*%
X77164623Y-62535377D02*
X71120000Y-68580000D01*
X86360000Y-62535377D02*
X77164623Y-62535377D01*
%TO.N,Net-(L10-Pad2)*%
X117686665Y-45720000D02*
X124460000Y-52493335D01*
X124460000Y-52493335D02*
X124460000Y-60960000D01*
%TO.N,Net-(L12-Pad2)*%
X86360000Y-78740000D02*
X77098198Y-78740000D01*
X77098198Y-78740000D02*
X71120000Y-84718198D01*
%TO.N,Net-(L13-Pad2)*%
X76898925Y-84718198D02*
X71053576Y-90563547D01*
X86360000Y-84718198D02*
X76898925Y-84718198D01*
%TO.N,Net-(L15-Pad2)*%
X124460000Y-77893335D02*
X124460000Y-86360000D01*
X117686665Y-71120000D02*
X124460000Y-77893335D01*
%TO.N,Net-(Q1-B)*%
X47832410Y-59522470D02*
X50500851Y-59522470D01*
X46562410Y-58252470D02*
X47832410Y-59522470D01*
%TO.N,Net-(Q5-B)*%
X59100261Y-57244732D02*
X61199835Y-57244732D01*
X55803489Y-53947960D02*
X59100261Y-57244732D01*
%TO.N,Net-(Q7-B)*%
X46523519Y-80973833D02*
X46510390Y-80986962D01*
X50560678Y-80973833D02*
X46523519Y-80973833D01*
%TO.N,Net-(Q8-B)*%
X55751469Y-74825039D02*
X58103392Y-77176962D01*
X58103392Y-77176962D02*
X61147815Y-77176962D01*
%TO.N,Net-(U5A-+)*%
X117716621Y-109220000D02*
X117716621Y-102355704D01*
X114300000Y-102771804D02*
X117126149Y-102771804D01*
X110880422Y-102655886D02*
X114184082Y-102655886D01*
X114184082Y-102655886D02*
X114300000Y-102771804D01*
X117126149Y-102771804D02*
X117629435Y-102268518D01*
X117716621Y-102355704D02*
X117629435Y-102268518D01*
%TO.N,Phase3*%
X147215959Y-71015959D02*
X139447238Y-71015959D01*
X147320000Y-71120000D02*
X147215959Y-71015959D01*
X136681888Y-116739651D02*
X133349606Y-116739651D01*
X133349606Y-116739651D02*
X133320319Y-116710364D01*
%TO.N,Phase2*%
X139020592Y-33699408D02*
X139020592Y-45829420D01*
X147320000Y-25400000D02*
X139020592Y-33699408D01*
X138203982Y-98332267D02*
X138203982Y-101623851D01*
X138203982Y-101623851D02*
X138179567Y-101648266D01*
%TO.N,Phase1*%
X147320000Y-20320000D02*
X136885492Y-20320000D01*
X135562877Y-17977129D02*
X135562877Y-18997385D01*
X136885492Y-20320000D02*
X135562877Y-21642615D01*
X135562877Y-18997385D02*
X136885492Y-20320000D01*
X134620000Y-91440000D02*
X134620000Y-94862397D01*
X134620000Y-94862397D02*
X134652999Y-94895396D01*
%TO.N,+3.3V*%
X63500000Y-97790000D02*
X65190484Y-96099516D01*
X104601417Y-96099516D02*
X108205047Y-92495886D01*
X65190484Y-96099516D02*
X104601417Y-96099516D01*
X108205047Y-92495886D02*
X110880422Y-92495886D01*
X63500000Y-97790000D02*
X63500000Y-102870000D01*
%TO.N,Net-(U5B-+)*%
X110118364Y-105719119D02*
X110118364Y-106701743D01*
X110118364Y-106701743D02*
X112636621Y-109220000D01*
%TO.N,Net-(U5B--)*%
X128043982Y-98332267D02*
X127316249Y-99060000D01*
X127316249Y-99060000D02*
X111208486Y-99060000D01*
X108668486Y-107791865D02*
X110096621Y-109220000D01*
X108668486Y-101600000D02*
X108668486Y-107791865D01*
X107286967Y-96031382D02*
X108668486Y-97412901D01*
X108668486Y-97412901D02*
X108668486Y-101600000D01*
X111208486Y-99060000D02*
X108668486Y-101600000D01*
%TO.N,Net-(R17-Pad2)*%
X107286967Y-106191382D02*
X107286967Y-108950346D01*
X107286967Y-108950346D02*
X107556621Y-109220000D01*
%TO.N,Net-(U5C-+)*%
X112655658Y-120253120D02*
X112655658Y-116859037D01*
X112655658Y-116859037D02*
X112636621Y-116840000D01*
%TO.N,Net-(U5C--)*%
X110017191Y-116919430D02*
X110096621Y-116840000D01*
X110017191Y-120101531D02*
X110017191Y-116919430D01*
%TO.N,Net-(R23-Pad2)*%
X93647430Y-126311292D02*
X99857191Y-120101531D01*
X104295090Y-120101531D02*
X107556621Y-116840000D01*
X91932762Y-126311292D02*
X93647430Y-126311292D01*
X99857191Y-120101531D02*
X104295090Y-120101531D01*
%TO.N,Net-(U5D-+)*%
X117716621Y-118863116D02*
X117716621Y-116840000D01*
X112796641Y-123783096D02*
X117716621Y-118863116D01*
%TO.N,Net-(U5D--)*%
X120256621Y-123427061D02*
X120256621Y-116840000D01*
X123884995Y-127055435D02*
X120256621Y-123427061D01*
X128555967Y-127055435D02*
X123884995Y-127055435D01*
X134242237Y-124460000D02*
X131151402Y-124460000D01*
X131151402Y-124460000D02*
X128555967Y-127055435D01*
X136681888Y-126899651D02*
X134242237Y-124460000D01*
%TO.N,Net-(R28-Pad2)*%
X96725468Y-119055417D02*
X102219304Y-113561581D01*
X122852056Y-116895435D02*
X122796621Y-116840000D01*
X102219304Y-113561581D02*
X119518202Y-113561581D01*
X76202134Y-119055417D02*
X96725468Y-119055417D01*
X74228929Y-117082212D02*
X76202134Y-119055417D01*
X119518202Y-113561581D02*
X122796621Y-116840000D01*
D27*
%TO.N,Net-(R30-Pad2)*%
X134597508Y-29782754D02*
X133079311Y-31300951D01*
X131630000Y-66615305D02*
X131630000Y-86961258D01*
X131320901Y-66306206D02*
X131630000Y-66615305D01*
X133079311Y-31300951D02*
X133079311Y-33111541D01*
X30923103Y-116715617D02*
X27454668Y-116715617D01*
X131630000Y-86961258D02*
X130141258Y-88450000D01*
X100499707Y-94443897D02*
X49813738Y-94443897D01*
X106493604Y-88450000D02*
X100499707Y-94443897D01*
X49813738Y-94443897D02*
X42422049Y-101835586D01*
X131320901Y-34869951D02*
X131320901Y-66306206D01*
X42422049Y-105216671D02*
X30923103Y-116715617D01*
X130141258Y-88450000D02*
X106493604Y-88450000D01*
X133079311Y-33111541D02*
X131320901Y-34869951D01*
X42422049Y-101835586D02*
X42422049Y-105216671D01*
%TO.N,Net-(R31-Pad2)*%
X106680000Y-88900000D02*
X100686103Y-94893897D01*
X100686103Y-94893897D02*
X50000134Y-94893897D01*
X42890388Y-102003643D02*
X42890388Y-116927792D01*
X132080000Y-66040000D02*
X132080000Y-87147654D01*
X130327654Y-88900000D02*
X106680000Y-88900000D01*
X50000134Y-94893897D02*
X42890388Y-102003643D01*
X132080000Y-87147654D02*
X130327654Y-88900000D01*
%TO.N,Net-(R32-Pad2)*%
X43340388Y-102190039D02*
X43340388Y-114300000D01*
X43340388Y-114300000D02*
X56963224Y-127922836D01*
X133003065Y-81516163D02*
X133003065Y-86860985D01*
X100872499Y-95343897D02*
X50186530Y-95343897D01*
X50186530Y-95343897D02*
X43340388Y-102190039D01*
X72915713Y-127922836D02*
X74209887Y-126628662D01*
X133003065Y-86860985D02*
X130514050Y-89350000D01*
X56963224Y-127922836D02*
X72915713Y-127922836D01*
X130514050Y-89350000D02*
X106866396Y-89350000D01*
X106866396Y-89350000D02*
X100872499Y-95343897D01*
%TO.N,TIM_CH1*%
X73660000Y-44450000D02*
X72412892Y-43202892D01*
D25*
X58298651Y-38100000D02*
X71120000Y-38100000D01*
D27*
X72412892Y-43202892D02*
X72412892Y-39392892D01*
D25*
X43176082Y-22177431D02*
X43176082Y-22977431D01*
D27*
X72412892Y-39392892D02*
X71120000Y-38100000D01*
D25*
X43176082Y-22977431D02*
X58298651Y-38100000D01*
%TO.N,TIM_CH3N*%
X68602470Y-54241403D02*
X71710573Y-51133300D01*
D27*
X74985000Y-45239947D02*
X74985000Y-43125000D01*
D25*
X68602470Y-66040000D02*
X68602470Y-54241403D01*
X71710573Y-48514374D02*
X74985000Y-45239947D01*
D27*
X74985000Y-43125000D02*
X76200000Y-41910000D01*
D25*
X71710573Y-51133300D02*
X71710573Y-48514374D01*
%TO.N,TIM_CH1N*%
X58226212Y-36135966D02*
X75505966Y-36135966D01*
X75505966Y-36135966D02*
X81280000Y-41910000D01*
X52379688Y-30289442D02*
X58226212Y-36135966D01*
D27*
%TO.N,ADC2_IN13*%
X32730388Y-116927792D02*
X37456384Y-112201796D01*
X37456384Y-112201796D02*
X38157677Y-112201796D01*
D25*
%TO.N,ADC3_IN0*%
X69503792Y-112555624D02*
X64977204Y-117082212D01*
X64977204Y-117082212D02*
X64068929Y-117082212D01*
D27*
X77519147Y-106154902D02*
X71118425Y-112555624D01*
X71118425Y-112555624D02*
X69503792Y-112555624D01*
X77519147Y-104090853D02*
X77519147Y-106154902D01*
X78740000Y-102870000D02*
X77519147Y-104090853D01*
D25*
%TO.N,ADC3_IN1*%
X64868811Y-126628662D02*
X69530528Y-121966945D01*
D27*
X82586342Y-104176342D02*
X82586342Y-106114654D01*
X81280000Y-102870000D02*
X82586342Y-104176342D01*
D25*
X64049887Y-126628662D02*
X64868811Y-126628662D01*
D27*
X69530528Y-119170468D02*
X69530528Y-121966945D01*
X82586342Y-106114654D02*
X69530528Y-119170468D01*
D25*
%TO.N,ADC1_IN4*%
X120256621Y-105740862D02*
X120278364Y-105719119D01*
X92444804Y-100957213D02*
X85732787Y-100957213D01*
X125227955Y-117840823D02*
X125227955Y-111651334D01*
X122815658Y-120253120D02*
X125227955Y-117840823D01*
X102741468Y-112460000D02*
X94165427Y-103883959D01*
X121920000Y-38100000D02*
X126223022Y-33796978D01*
X94165427Y-103883959D02*
X94165427Y-102677836D01*
X122956641Y-123783096D02*
X122956641Y-120394103D01*
X94165427Y-102677836D02*
X92444804Y-100957213D01*
X125227955Y-111651334D02*
X122796621Y-109220000D01*
X85732787Y-100957213D02*
X83820000Y-102870000D01*
X120256621Y-109220000D02*
X117016621Y-112460000D01*
X122956641Y-120394103D02*
X122815658Y-120253120D01*
X120256621Y-109220000D02*
X120256621Y-105740862D01*
X122796621Y-109220000D02*
X120256621Y-109220000D01*
X117016621Y-112460000D02*
X102741468Y-112460000D01*
X126223022Y-33796978D02*
X126223022Y-32251284D01*
D27*
%TO.N,ADC2_IN12*%
X88900000Y-105410000D02*
X85476798Y-108833202D01*
X85476798Y-108833202D02*
X85476798Y-115408112D01*
D25*
X81772762Y-126311292D02*
X82729639Y-126311292D01*
X82729639Y-126311292D02*
X87225483Y-121815448D01*
D27*
X85476798Y-115408112D02*
X87293308Y-117224622D01*
D25*
%TO.N,ADC2_IN6*%
X39263895Y-46456938D02*
X58953062Y-46456938D01*
X58953062Y-46456938D02*
X60960000Y-44450000D01*
%TO.N,Net-(U2--)*%
X120226667Y-17887323D02*
X121920000Y-17887323D01*
X121920000Y-17887323D02*
X125313071Y-17887323D01*
X125402877Y-21642615D02*
X121920000Y-18159738D01*
X125313071Y-17887323D02*
X125402877Y-17977129D01*
X121920000Y-18159738D02*
X121920000Y-17887323D01*
%TO.N,Net-(U3--)*%
X128507842Y-49767842D02*
X128834806Y-49767842D01*
X128751172Y-45720000D02*
X128860592Y-45829420D01*
%TO.N,Net-(U4--)*%
X129183197Y-71120000D02*
X129287238Y-71015959D01*
%TD*%
M02*
